<?xml version="1.0" encoding="UTF-8"?>
<svg id="Layer_1" data-name="Layer 1" xmlns="http://www.w3.org/2000/svg" viewBox="0 0 512 185.06">
  <defs>
    <style>
      .cls-1 {
        fill: #fff;
      }

      .cls-2 {
        fill: #c94538;
      }

      .cls-3 {
        fill: #139956;
      }
    </style>
  </defs>
  <path class="cls-1" d="m122.02,149.64c-.02.17-.03.35-.04.52-1.45.99-2.89,1.97-4.34,2.95-.18.12-.38.45-.62.12,2.35-4.07,3.11-6.17,1.7-10.96-2.17-8.24-4.78-16.6-3.97-25.23-.1-3.34,1.6-8.06-2.61-9.37-4.46-1.9-9.12-3.55-13.21-6.17q-3.6-2.46-7.72-2.48c.79-1.24,3.89-5.81,5.57-4.75,7.14,3.01,14.25,6.7,19.6,12.29,1.01-2.39,1.14-5.31,2.19-7.79,1.15-3.27,3.52-6.07,4.14-9.51,1.05.03,5.85,4.48,6.35,2.33,1.45-6.21,6.82-10.68,12.48-13.12-5.12-2.89-10.44-5.38-16.37-3.64,6.47-5.24,3.84-10.49,3.29-17.49,5.45-.49,12.52-1.88,17.03,1.91.26.34.37.04.49-.1,3.42-5.04-1.61-10.64-3.77-15.15-.12-.21-.43-.56.14-.66,5.69.97,4.63,6.98,5.84,11.26.7,2.25,2.04,4.2,2.33,6.61,3.57-5.68,4.74-12.69,2.14-18.93-1.46-2.83,2.19-1.86,2.62,2.14,1.94-2.08.24-6.5,2.49-7.74,1.22.65-.82,4.12.39,4.81.41.1.44-.66.58-1.05.82-1.78.59-3.52,1.9-3.7.91.95-.48,2.74-.32,3.98.63-.71.33-1.47,1.12-2.12.38-.26.71.66.71.66.09.08-.08.78-.12,1.01-.13.06-.13.14-.05.24-.18,1.1-1.06,2.26-.86,3.3.23-.17.37-.33.36-.57.29-.68,1.48-1.93,1.56-.47-.75,2.01-2.04,3.85-2.64,5.96-1.33,2.47-3.22,4.52-3.27,7.48-2.17,8.86-4.53,23.64-12.31,7.69-8.14,24.24-.13,9.43,22.22,26.15,4.07,2.97,1.47,8.55,1.23,12.68-1.16,8.47-3.43,16.84-3.87,25.38.03.55-.03,1.14.79,1.22,1.83,2.75,3.64,5.7,6.46,7.69,1.95,1.66,6.38,1.38,6.17,4.73-2.29,2.75-6.45,1.67-9.45.99-4.63-1.89-10.91-.97-14.58-4.55-.89-1.25,1.11-1.8.93-3.11.19-1.49.17-5.31,2.25-5.22,1.49-.58,1.61-5.12,1.75-6.74.86-8-1.61-16.41,1.31-24.07,1.53-3.28-.04-3.35-2.96-3.37-34.01-1-14.2-7.82-30.57,13.22-3.29,2.98-4.7,7.41-8.07,10.22-.4.3-.37.63-.37,1.03,1.24,9.7,1.85,19.6,3.9,29.17-.05.13,0,.23.08.32"/>
  <path class="cls-1" d="m132.27,38.8c.2-.66.5-1.3.44-2.09-3.75,1.13-7.29.99-11.14.19,2.76-.28,4.86-1.31,6.65-3.5-4.88,1.41-9.5.97-14.14-.18,3.56-.07,6.89-.75,9.77-3.35-2.29-.25-4.44-.46-6.68-1.26,6.1-.65,9.13-6.85,14.81-8.5,5.94-2.19,13.99.47,14.67,7.46.28,1.75-.73,3.38.76,4.82,1.05,1.3-1.67,1.24-.53,2.36.46.46.02.85-.34,1.09-.85.44.44,1.43-.64,1.83-1.36.68-1.76,3.14-3.68,1.98-.77-.48-1.58-1.26-1.89.09-.18,1-1.02,2.38.16,3.03.84,1.64,5.85,8.87,1.49,8.23-5-2.55-4.25-10.26-9.73-12.22"/>
  <path class="cls-1" d="m121.78,84.41c-.03-.19-.07-.39-.1-.58.14-.12.12-.24-.03-.34.42-6.23-3.89-10.28-7.26-14.95-1.57-3.03-6.36-8.68-4.68-11.94,2.3-4.57,6.74-7.4,11.07-9.82,3.72-2.2,6.34-5.91,10.61-7.22,7.74,4.78,3.91,13.34-5.18,11.73-2.5.88-3.61,4.01-6.17,5.01-1.94,1.23-5.05,1.74-3.37,4.57,2.19,4.97,4.57,10.41,8.32,14.26.37,1.49,2.19,2.37,2.91,3.77.6,1.3,2.52,1.52,2.93,2.69-1.13,1.12-2.49-.62-3.64-1-.25.7,3.71,8.73,1.22,6.23-1.06-1.03-1.18-3.36-2.55-3.84-.28,1.35,2.31,4.64,1.48,5.99-1.48-.27-1.63-4.06-2.79-4.65-.4,1.12.8,2.67,1.01,3.91.09.31.18.61-.16.82-1.73.02-1.71-2.94-2.46-4.15-.22.81-.02,1.52.26,2.24.08.21.55.57-.04.8-.88-.96-.71-2.44-1.4-3.52"/>
  <path class="cls-1" d="m70.41,104.26c1.84-.2,3.64-.8,5.53-.55,2.17.3,4.82,4.1,3.38,6.56-3.06,5.23-6.3,10.34-11.36,13.96-3.88,2.81-6.76,8.29-12.34,6.49-10.81-2.84-22.59-1.49-31.79,5.08-1.83,2.1-4.53-3.77-3.85-5.16,2.41,8.08,15.52-13.12,28.4-6.32,2.58.73,4.97,3.37,7.77,2.53,3.43-1.17,7.77-1.71,9.45-5.39,2.08-5.94,16.02-12.45,4.82-17,0-.07,0-.14,0-.21"/>
  <path class="cls-3" d="m88.79,50.43c-.82-11.14,2.79,1.73,5.31,4.45,2.07,4.74-.85,12.4-.83,17.76-2.57,20.32,1.01,17.21-16.15,7.22,12.05,1.72,13.25-8.87,15.63-17.94.47-1.67.24-2.83-1.02-4.09-1.86-1.85-3.01-4.19-3.85-6.7-1.4-4.28-4.46-8.16-5.01-12.55-2.61,3.9-7.54,7.75-6.45,13.09,1.89,9.12,2.56,19.26-1.33,27.96-1.33-11.62-3.53-24.08,1.83-35.02,1.63-2.78,4.44-4.64,5.67-7.71.44-.96,1.66-2.26,2.67-1.19.08.08.14.22.23.23,1.32.16.59.7.28,1.26-1.68,4.03,1.59,9.39,3.01,13.21"/>
  <path class="cls-2" d="m126.21,51.28c9.1,1.61,12.91-6.97,5.18-11.73.35-.19.65-.44.88-.76,5.48,1.97,4.73,9.67,9.73,12.22,4.37.66-.65-6.62-1.49-8.23.62.17,1.26.27,1.84.56-.57.11-.26.46-.14.67,2.17,4.51,7.2,10.11,3.77,15.15-.12.13-.23.44-.49.1-4.51-3.79-11.57-2.4-17.03-1.91-.89-1.94-1.45-4.07-2.25-6.07"/>
  <path class="cls-1" d="m65.91,75.06c-2.82.15-2.92,2.71-3.99,4.38,2.54-9.52.96-8.03-3.33-16.5-1.72-3.35-2.39-6.97-2.35-10.72.12-4.53,7.66-5.48,11.04-7.25,2.52-1.3,5.77.37,7.88-1.42,2.15-2.2,1.07,1.98-.07,2.57-13.89,14.02-21.3-4.05-12.95,19.94,1.49,2.87.82,7.13,3.77,8.99"/>
  <path class="cls-3" d="m121.78,84.41c.7,1.07.52,2.56,1.4,3.52.31.95.36-.45.83-.21.2.56.67,1.63,1.42,1.32.89-.99-1.53-3.68-.85-4.73.94.69,1.13,2.56,1.82,3.64,1.03,2.13,1.48.49.83-.88-.3-1.34-1.43-2.86-1.34-4.1,1.37.48,1.49,2.81,2.55,3.84,2.49,2.47-1.46-5.49-1.22-6.23,1.14.38,2.5,2.12,3.64,1.01-.41-1.17-2.34-1.39-2.93-2.69-.72-1.4-2.54-2.28-2.91-3.77,5.4-2.46,11.55.63,16.54,3.37-5.66,2.44-11.03,6.92-12.48,13.12-.43,2.16-5.35-2.32-6.35-2.33-.63-1.56-1.18-3.13-.93-4.88"/>
  <path class="cls-2" d="m91.45,89.82c-1.54,4.34-1.17,10-4.44,13.43-1.39.51-5.98,5.97-6.71,4.02-2.65-7.08-5.7-3.49-11.18-4.11-.86-.02-4.66-1.86-3.41-2.61,14.17-4.32,14.95,6.53,25.56-10.82l.17.09Z"/>
  <path class="cls-1" d="m134.77,162.64c-4.22,1.09-8.21-1.44-12.48-.69-2.11-.29-4.75,1.1-6.33-.81,5.41-.64,10.82-1.28,16.23-1.92-2.34-2.15-6.95-1.17-7.63-4.94-.1-.52-.25-.54-.61-.22-1.52,1.39-3.82,2.3-5.76,1.12,1.81-.43,3.74-.61,4.8-2.74-1.39.37-2.63.7-3.88,1.02-.04-.07-.09-.13-.13-.2,6.71-8.27,7.69,4.43,17.86,4.08,8.07.28,3.35,3.43-1.08,5.01-.13-.03-.25,0-.33.11-.13-.03-.25,0-.35.11-.12-.04-.23-.03-.33.07"/>
  <path class="cls-1" d="m17.17,130.11c.19-.83,1.73-2.38.28-2.67-.77-.19-1.23.24-1.56.84-1.77,4.08-1.62,8.91-5.99,11.41-3.04,1.33-2.71,10.87,1.47,6.34-2.34,12.3-8.46-2.07-3.77-7.69,1.99-3.86,4.5-7.42,6.49-11.28,1.09-2.84,4.05-1.02,6.29-.81,4.18,1.43-1.51,3.13-3.06,4.02-.05-.05-.1-.11-.15-.16"/>
  <path class="cls-1" d="m84.02,33.65c-4.53-5.43-2.02-16.84,6.05-16.43,3.81,1.3,9.07,1.53,10.44,6.04.18,2-1.47.07-2.06-.47-.74-.65-1.51-1.06-2.59-.86-3.33-.23-4.32-2.33-8.4-1.12-5.95.89-2.1,8.79-3.44,12.83"/>
  <path class="cls-1" d="m86.7,35.15c4.38-.82,8.63-.75,10.99,3.48.21.34.63.15.52-.23-.06-.7-.1-1.4-.17-2.09-.27-.53,1.5-3.11,1.46-1.88-1.15,4.88-1.66,3.74-.4,8.75.85,3.65,5.13,6.3,5.92,9.66-1.29.16-4.19-3.82-5.58-4.74-.95-.97-2.15-1.65-2-3.24-.17-3.39-4.55-4.28-5.93-7.17-1.05-1.96-3.29-1.15-4.79-2.52"/>
  <path class="cls-2" d="m68.52,95.81c-.04-8.56,4.56-21.11,13.72-11.16-9.35-.33-9.34,4.83-13.72,11.16"/>
  <path class="cls-1" d="m96.27,58.43c3.51,3.4,4.29-.37,7.17.37,2.55.73,3.04-3.6,4.15-5.19,1.18-3.44-2.9-5.83-4.9-8.14,2.82-.43,4.44,3.21,6.45,4.75.82.9.96,1.63.28,2.65-2.13,3.1-2.69,7.64-6.89,8.72-2.36.7-5.16-.65-6.26-3.17"/>
  <path class="cls-1" d="m63.43,83.11c.49-.37,2.36-.26,1.68-1.11-1.9-2.51,3.7-1.16,3.67-5.95,1.06,1.2,1.01,3.04-.11,4.03-1.46,1.58-2.58,5.23-5.23,3.03"/>
  <path class="cls-1" d="m98.68,33.23c2.63-.49-1.27-4.48.39-4.84,1.52.34.34-2.08,1.23-2.11.66,1.7-.84,4.5.69,6.23.79,1.39-1.38.75-2.09.89-.07-.06-.14-.12-.22-.17"/>
  <path class="cls-2" d="m90.82,96.89c.38-1.34,1.1-2.55,1.63-3.82.29-.46.32-1.38.81-1.34.47.06,1.97,1.24,1.55,1.82-1.26,1.17-2.53,2.34-3.79,3.51-.07-.06-.13-.11-.2-.17"/>
  <path class="cls-3" d="m121.65,83.48c.15.1.16.21.03.34-.12-.1-.12-.22-.03-.34"/>
  <path class="cls-1" d="m124.01,87.72c-.46-.25-.52,1.16-.83.21.58-.22.12-.58.04-.79-.28-.73-.48-1.44-.26-2.25.35.95.7,1.89,1.05,2.83"/>
  <path d="m123.15,87.91s-.09-.09-.13-.13c.05.05.09.09.13.13"/>
  <polygon class="cls-1" points="229.19 104.76 267.67 23.11 219.48 23.11 229.36 38.36 187.94 125.9 258.31 125.9 268.36 104.76 229.19 104.76"/>
  <path class="cls-1" d="m341.86,62.11l.02-.04h-31.18l-30.21,63.83h31.2l20.11-42.47h49.75l10.06-21.32h-49.75Zm-57.84-39l-10.47,21.32h126.56l10.05-21.32h-126.14Z"/>
  <path class="cls-1" d="m420.73,23.11l-15.42,32.59c-2.95,6.24-1.73,12.14,3.29,15.25,8.67,5.55,25.49,15.95,34.33,21.33l-5.72,12.48h-23.92s-75.47,0-75.47,0c-1.63,3.47-4.22,8.96-10.03,21.15h130.39l12.66-26.52,2.42-5.37c4.34-9.02,2.6-17.33-4.33-22.01-8.66-5.72-20.8-13.53-30.85-19.76l3.64-7.8h32.77c.71,0,1.4.03,2.06.09h20.23l10.13-21.4h-86.16Z"/>
  <polygon class="cls-1" points="204.23 156 204.23 161.5 190.88 161.5 190.88 139.25 196.57 139.25 196.57 156 204.23 156"/>
  <path class="cls-1" d="m221.29,145.61v15.89h-5.27v-1.59c-.89,1.27-2.45,2.03-4.42,2.03-3.27,0-5.85-2.26-5.85-6.83v-9.5h5.27v8.83c0,1.72,1.02,2.51,2.38,2.51,1.62,0,2.61-.99,2.61-2.89v-8.45h5.27Z"/>
  <path class="cls-1" d="m237.17,156.6c0,3.97-3.62,5.34-6.86,5.34s-5.85-1.08-7.12-3.78l4.61-2.32c.41,1.18,1.24,1.75,2.48,1.75.92,0,1.43-.28,1.43-.86,0-1.65-7.75-.6-7.75-6.23,0-3.59,3.15-5.34,6.39-5.34,2.86,0,5.24,1.08,6.55,3.69l-4.45,2c-.44-.89-1.08-1.37-1.97-1.37-.73,0-1.18.29-1.18.76,0,1.75,7.88.32,7.88,6.35"/>
  <path class="cls-1" d="m255.69,145.61v15.89h-5.27v-1.46c-1.02,1.21-2.48,1.91-4.51,1.91-4.26,0-7.47-3.62-7.47-8.39s3.21-8.39,7.47-8.39c2.03,0,3.49.7,4.51,1.91v-1.46h5.27Zm-5.27,7.94c0-2.06-1.37-3.46-3.34-3.46s-3.34,1.4-3.34,3.46,1.37,3.46,3.34,3.46,3.34-1.4,3.34-3.46"/>
  <polygon class="cls-1" points="268.53 161.5 264.01 154.73 264.01 161.5 258.74 161.5 258.74 139.26 264.01 139.26 264.01 152.25 268.11 145.61 274.21 145.61 268.87 153.55 274.43 161.5 268.53 161.5"/>
  <path class="cls-1" d="m291.46,145.61v15.89h-5.27v-1.46c-1.02,1.21-2.48,1.91-4.51,1.91-4.26,0-7.47-3.62-7.47-8.39s3.21-8.39,7.47-8.39c2.03,0,3.49.7,4.51,1.91v-1.46h5.27Zm-5.27,7.94c0-2.06-1.37-3.46-3.34-3.46s-3.34,1.4-3.34,3.46,1.37,3.46,3.34,3.46,3.34-1.4,3.34-3.46"/>
  <polygon class="cls-1" points="307.63 144.75 307.63 148.37 315.45 148.37 315.45 153.87 307.63 153.87 307.63 161.5 301.94 161.5 301.94 139.26 315.61 139.26 315.61 144.75 307.63 144.75"/>
  <path class="cls-1" d="m317.76,141.26c0-1.65,1.4-3.02,3.05-3.02s3.05,1.37,3.05,3.02-1.4,3.05-3.05,3.05-3.05-1.4-3.05-3.05m.41,4.35h5.27v15.89h-5.27v-15.89Z"/>
  <path class="cls-1" d="m333.05,150.66v4.61c0,1.49,1.18,1.59,3.3,1.46v4.77c-6.48.79-8.58-1.21-8.58-6.1v-4.73h-2.38v-5.05h2.38v-2.86l5.27-1.59v4.45h3.3v5.05h-3.3Z"/>
  <path class="cls-1" d="m354.55,152v9.5h-5.27v-8.83c0-1.72-1.02-2.51-2.38-2.51-1.62,0-2.6.99-2.6,2.89v8.45h-5.27v-15.89h5.27v1.59c.89-1.27,2.45-2.03,4.42-2.03,3.27,0,5.85,2.26,5.85,6.83"/>
  <path class="cls-1" d="m365.67,157.43c1.14,0,2.13-.38,2.89-1.11l3.81,2.67c-1.59,2-4,2.96-6.83,2.96-5.5,0-8.9-3.65-8.9-8.36s3.49-8.42,8.45-8.42,8.2,3.59,8.2,8.36c0,.67-.06,1.3-.22,1.97h-10.96c.64,1.53,2.03,1.94,3.56,1.94m2.48-5.59c-.48-1.65-1.72-2.22-2.99-2.22-1.52,0-2.67.76-3.11,2.22h6.1Z"/>
  <path class="cls-1" d="m387.85,156.6c0,3.97-3.62,5.34-6.86,5.34s-5.85-1.08-7.12-3.78l4.61-2.32c.41,1.18,1.24,1.75,2.48,1.75.92,0,1.43-.28,1.43-.86,0-1.65-7.75-.6-7.75-6.23,0-3.59,3.15-5.34,6.39-5.34,2.86,0,5.24,1.08,6.55,3.69l-4.45,2c-.45-.89-1.08-1.37-1.97-1.37-.73,0-1.18.29-1.18.76,0,1.75,7.88.32,7.88,6.35"/>
  <path class="cls-1" d="m402.02,156.6c0,3.97-3.62,5.34-6.86,5.34s-5.85-1.08-7.12-3.78l4.61-2.32c.41,1.18,1.24,1.75,2.48,1.75.92,0,1.43-.28,1.43-.86,0-1.65-7.75-.6-7.75-6.23,0-3.59,3.15-5.34,6.39-5.34,2.86,0,5.24,1.08,6.55,3.69l-4.45,2c-.45-.89-1.08-1.37-1.97-1.37-.73,0-1.18.29-1.18.76,0,1.75,7.88.32,7.88,6.35"/>
  <path class="cls-1" d="m410.43,156.44l4.86-2.83c.79,1.91,2.16,2.96,4.39,2.96,2,0,2.6-.73,2.6-1.49,0-1.27-1.46-1.65-4.29-2.45-3.5-1.02-6.61-2.8-6.61-6.96s3.4-6.89,7.72-6.89c3.69,0,6.7,1.75,8.26,5.08l-4.77,2.8c-.7-1.65-1.84-2.48-3.46-2.48-1.4,0-2.07.67-2.07,1.46,0,.99.79,1.53,3.81,2.42,3.43,1.02,7.09,2.29,7.09,6.96,0,4.42-3.43,6.96-8.45,6.96s-7.91-2.26-9.09-5.53"/>
  <path class="cls-1" d="m446.94,145.61v22.24h-5.27v-7.82c-1.02,1.21-2.48,1.91-4.51,1.91-4.26,0-7.47-3.62-7.47-8.39s3.21-8.39,7.47-8.39c2.03,0,3.49.7,4.51,1.91v-1.46h5.27Zm-5.27,7.94c0-2.06-1.37-3.46-3.34-3.46s-3.34,1.4-3.34,3.46,1.37,3.46,3.34,3.46,3.34-1.4,3.34-3.46"/>
  <path class="cls-1" d="m465.33,145.61v15.89h-5.27v-1.59c-.89,1.27-2.45,2.03-4.42,2.03-3.27,0-5.85-2.26-5.85-6.83v-9.5h5.27v8.83c0,1.72,1.02,2.51,2.38,2.51,1.62,0,2.61-.99,2.61-2.89v-8.45h5.27Z"/>
  <path class="cls-1" d="m484.87,145.61v15.89h-5.27v-1.46c-1.02,1.21-2.48,1.91-4.51,1.91-4.26,0-7.47-3.62-7.47-8.39s3.21-8.39,7.47-8.39c2.03,0,3.49.7,4.51,1.91v-1.46h5.27Zm-5.27,7.94c0-2.06-1.37-3.46-3.34-3.46s-3.34,1.4-3.34,3.46,1.37,3.46,3.34,3.46,3.34-1.4,3.34-3.46"/>
  <path class="cls-1" d="m504.38,139.26v22.24h-5.27v-1.46c-1.02,1.21-2.48,1.91-4.51,1.91-4.26,0-7.47-3.62-7.47-8.39s3.21-8.39,7.47-8.39c2.03,0,3.49.7,4.51,1.91v-7.82h5.27Zm-5.27,14.3c0-2.06-1.37-3.46-3.34-3.46s-3.34,1.4-3.34,3.46,1.37,3.46,3.34,3.46,3.34-1.4,3.34-3.46"/>
</svg>