<?xml version="1.0" encoding="UTF-8"?>
<svg id="Layer_1" data-name="Layer 1" xmlns="http://www.w3.org/2000/svg" viewBox="0 0 512 185.06">
  <defs>
    <style>
      .cls-1 {
        fill: #c94538;
      }

      .cls-2 {
        fill: #139956;
      }
    </style>
  </defs>
  <path d="m120.1,155.15c-.02.18-.03.35-.04.53-1.46,1-2.92,2-4.39,2.98-.18.12-.39.45-.63.13,2.38-4.11,3.15-6.24,1.72-11.08-2.2-8.34-4.83-16.79-4.02-25.52-.1-3.38,1.62-8.15-2.64-9.48-4.51-1.92-9.22-3.59-13.36-6.24q-3.64-2.49-7.81-2.51c.8-1.25,3.93-5.87,5.64-4.8,7.22,3.04,14.41,6.78,19.82,12.43,1.02-2.42,1.15-5.37,2.22-7.87,1.16-3.31,3.56-6.14,4.19-9.62,1.06.03,5.92,4.53,6.43,2.36,1.47-6.28,6.89-10.81,12.62-13.27-5.18-2.92-10.56-5.44-16.56-3.68,6.54-5.3,3.89-10.61,3.33-17.69,5.52-.5,12.66-1.9,17.23,1.93.26.34.38.04.5-.1,3.46-5.1-1.63-10.76-3.82-15.33-.12-.21-.44-.57.14-.67,5.76.98,4.69,7.06,5.91,11.39.71,2.27,2.06,4.24,2.36,6.68,3.61-5.74,4.8-12.84,2.16-19.14-1.47-2.86,2.22-1.88,2.64,2.17,1.96-2.11.24-6.57,2.52-7.83,1.23.65-.83,4.17.39,4.87.42.1.45-.67.58-1.07.83-1.8.6-3.56,1.92-3.74.92.96-.49,2.77-.33,4.02.64-.72.33-1.49,1.13-2.14.38-.26.71.67.71.67.09.08-.08.79-.12,1.02-.13.06-.13.14-.05.25-.18,1.11-1.08,2.29-.87,3.34.24-.17.37-.33.37-.57.29-.68,1.5-1.95,1.57-.47-.76,2.03-2.06,3.89-2.67,6.03-1.35,2.5-3.25,4.57-3.31,7.57-2.2,8.96-4.59,23.91-12.45,7.78-8.23,24.51-.13,9.54,22.48,26.45,4.11,3,1.49,8.65,1.25,12.82-1.17,8.56-3.47,17.04-3.91,25.67.03.55-.03,1.15.8,1.23,1.85,2.78,3.68,5.76,6.53,7.78,1.97,1.68,6.45,1.4,6.24,4.79-2.32,2.78-6.52,1.69-9.56,1-4.69-1.91-11.04-.98-14.75-4.6-.9-1.27,1.12-1.82.94-3.15.19-1.51.17-5.37,2.28-5.28,1.51-.58,1.63-5.18,1.77-6.82.87-8.09-1.63-16.59,1.33-24.35,1.54-3.31-.04-3.39-3-3.41-34.4-1.01-14.36-7.9-30.92,13.37-3.33,3.01-4.75,7.5-8.17,10.34-.4.3-.38.64-.37,1.04,1.26,9.81,1.87,19.82,3.94,29.51-.05.13,0,.23.08.33"/>
  <path d="m130.47,43.04c.2-.66.5-1.31.45-2.11-3.79,1.15-7.38,1-11.26.19,2.79-.29,4.92-1.32,6.73-3.54-4.93,1.42-9.61.98-14.3-.18,3.6-.07,6.97-.76,9.88-3.39-2.32-.26-4.5-.47-6.75-1.28,6.17-.66,9.23-6.92,14.98-8.59,6.01-2.21,14.15.48,14.84,7.55.28,1.77-.73,3.42.76,4.88,1.06,1.32-1.69,1.25-.54,2.38.47.47.02.86-.34,1.11-.86.44.44,1.45-.65,1.85-1.37.69-1.78,3.17-3.72,2.01-.78-.49-1.6-1.27-1.91.09-.18,1.01-1.04,2.41.17,3.06.85,1.66,5.92,8.97,1.51,8.32-5.06-2.58-4.3-10.38-9.84-12.36"/>
  <path d="m119.85,89.17c-.03-.2-.07-.4-.1-.59.14-.13.12-.24-.03-.34.43-6.3-3.94-10.39-7.34-15.13-1.58-3.06-6.44-8.78-4.74-12.08,2.33-4.63,6.82-7.48,11.2-9.93,3.76-2.22,6.42-5.98,10.74-7.3,7.83,4.83,3.96,13.49-5.24,11.87-2.53.89-3.65,4.05-6.24,5.06-1.96,1.25-5.11,1.76-3.41,4.63,2.21,5.02,4.63,10.53,8.42,14.42.37,1.5,2.21,2.4,2.94,3.81.6,1.31,2.55,1.54,2.97,2.72-1.15,1.13-2.52-.62-3.68-1.01-.25.71,3.75,8.83,1.23,6.3-1.07-1.04-1.19-3.4-2.58-3.88-.29,1.37,2.34,4.69,1.49,6.05-1.5-.27-1.64-4.1-2.82-4.7-.4,1.14.81,2.7,1.03,3.95.09.31.19.62-.16.83-1.75.02-1.73-2.97-2.49-4.2-.23.82-.02,1.54.26,2.27.08.21.55.58-.04.8-.89-.97-.71-2.47-1.42-3.56"/>
  <path d="m67.9,109.24c1.86-.2,3.68-.81,5.59-.55,2.2.3,4.87,4.15,3.42,6.64-3.1,5.29-6.37,10.46-11.49,14.12-3.92,2.84-6.84,8.38-12.48,6.57-10.93-2.87-22.85-1.51-32.16,5.14-1.85,2.12-4.58-3.81-3.89-5.22,2.44,8.18,15.69-13.27,28.72-6.39,2.61.74,5.03,3.41,7.86,2.56,3.47-1.19,7.86-1.72,9.56-5.45,2.11-6.01,16.2-12.59,4.88-17.2,0-.07,0-.14,0-.21"/>
  <path class="cls-2" d="m86.49,54.81c-.83-11.26,2.82,1.75,5.37,4.5,2.09,4.8-.86,12.54-.84,17.97-2.6,20.55,1.03,17.41-16.34,7.31,12.19,1.74,13.4-8.97,15.81-18.15.48-1.68.25-2.86-1.03-4.13-1.88-1.87-3.05-4.24-3.89-6.77-1.42-4.33-4.52-8.25-5.06-12.69-2.64,3.94-7.62,7.83-6.52,13.24,1.91,9.22,2.59,19.48-1.35,28.28-1.34-11.76-3.58-24.36,1.85-35.42,1.65-2.81,4.49-4.69,5.73-7.8.44-.97,1.67-2.29,2.7-1.21.08.08.14.23.23.24,1.33.16.59.71.29,1.28-1.7,4.08,1.6,9.5,3.05,13.36"/>
  <path class="cls-1" d="m124.34,55.67c9.2,1.63,13.06-7.05,5.24-11.87.36-.19.66-.44.89-.76,5.54,1.99,4.78,9.78,9.84,12.36,4.42.66-.66-6.69-1.51-8.33.63.17,1.27.27,1.86.57-.58.11-.26.47-.15.67,2.19,4.56,7.28,10.23,3.82,15.32-.12.13-.24.44-.5.1-4.57-3.83-11.71-2.43-17.22-1.93-.9-1.96-1.47-4.11-2.27-6.14"/>
  <path d="m63.35,79.71c-2.85.15-2.95,2.74-4.04,4.43,2.57-9.63.97-8.12-3.37-16.69-1.74-3.39-2.42-7.05-2.38-10.84.12-4.58,7.75-5.55,11.17-7.33,2.55-1.31,5.83.38,7.97-1.44,2.18-2.22,1.08,2-.07,2.6-14.05,14.18-21.54-4.1-13.09,20.17,1.51,2.9.83,7.21,3.81,9.09"/>
  <path class="cls-2" d="m119.85,89.17c.7,1.09.52,2.59,1.42,3.56.32.96.37-.46.84-.21.21.56.67,1.65,1.43,1.33.9-1-1.55-3.72-.86-4.78.95.7,1.15,2.59,1.84,3.68,1.04,2.15,1.49.49.84-.89-.31-1.36-1.45-2.89-1.35-4.15,1.38.48,1.5,2.84,2.58,3.88,2.52,2.5-1.47-5.55-1.23-6.3,1.15.39,2.53,2.14,3.68,1.02-.42-1.19-2.36-1.41-2.97-2.72-.73-1.41-2.57-2.31-2.94-3.81,5.46-2.49,11.68.63,16.73,3.41-5.73,2.47-11.15,6.99-12.62,13.27-.44,2.19-5.41-2.34-6.43-2.36-.64-1.57-1.2-3.17-.94-4.93"/>
  <path class="cls-1" d="m89.18,94.64c-1.56,4.39-1.18,10.11-4.49,13.58-1.41.52-6.04,6.04-6.78,4.07-2.68-7.16-5.76-3.53-11.3-4.16-.87-.02-4.71-1.88-3.45-2.63,14.33-4.37,15.12,6.6,25.85-10.94l.18.09Z"/>
  <path d="m132.99,168.29c-4.26,1.1-8.31-1.46-12.62-.7-2.13-.3-4.8,1.11-6.4-.82,5.47-.65,10.95-1.3,16.42-1.94-2.37-2.17-7.03-1.18-7.71-5-.1-.53-.25-.55-.62-.22-1.54,1.4-3.86,2.33-5.82,1.14,1.83-.44,3.78-.61,4.86-2.77-1.41.37-2.67.7-3.92,1.03-.04-.07-.09-.13-.14-.2,6.79-8.36,7.78,4.48,18.07,4.12,8.16.28,3.39,3.47-1.09,5.07-.13-.03-.25,0-.33.11-.14-.03-.25.01-.35.11-.12-.04-.23-.03-.33.07"/>
  <path d="m14.06,135.39c.19-.84,1.75-2.4.29-2.7-.77-.2-1.25.24-1.58.85-1.79,4.13-1.64,9.01-6.06,11.54-3.07,1.34-2.74,10.99,1.49,6.41-2.37,12.44-8.55-2.09-3.81-7.78,2.01-3.9,4.55-7.5,6.57-11.41,1.11-2.87,4.1-1.03,6.36-.82,4.22,1.45-1.53,3.17-3.09,4.07-.05-.05-.1-.11-.15-.16"/>
  <path d="m81.67,37.83c-4.58-5.5-2.04-17.04,6.12-16.62,3.85,1.32,9.17,1.55,10.56,6.11.18,2.02-1.49.07-2.09-.48-.75-.65-1.53-1.08-2.62-.87-3.37-.24-4.37-2.35-8.5-1.13-6.01.9-2.12,8.89-3.48,12.98"/>
  <path d="m84.38,39.35c4.43-.83,8.73-.75,11.11,3.52.21.34.63.16.53-.24-.06-.7-.1-1.41-.18-2.12-.27-.54,1.52-3.15,1.47-1.9-1.16,4.94-1.68,3.78-.41,8.85.86,3.69,5.19,6.37,5.98,9.77-1.31.16-4.23-3.86-5.65-4.8-.96-.98-2.17-1.67-2.02-3.28-.17-3.43-4.6-4.33-6-7.26-1.06-1.99-3.33-1.17-4.84-2.55"/>
  <path class="cls-1" d="m65.99,100.7c-.04-8.66,4.61-21.36,13.88-11.29-9.46-.33-9.45,4.88-13.88,11.29"/>
  <path d="m94.05,62.9c3.55,3.44,4.34-.37,7.26.37,2.58.74,3.07-3.65,4.2-5.25,1.19-3.48-2.93-5.9-4.96-8.23,2.85-.44,4.49,3.25,6.53,4.81.83.91.97,1.65.28,2.68-2.15,3.14-2.72,7.73-6.97,8.82-2.39.71-5.22-.66-6.33-3.21"/>
  <path d="m60.84,87.85c.5-.38,2.39-.27,1.69-1.13-1.92-2.54,3.74-1.18,3.71-6.02,1.07,1.21,1.02,3.08-.11,4.08-1.48,1.59-2.61,5.29-5.29,3.06"/>
  <path d="m96.5,37.41c2.66-.5-1.29-4.53.4-4.9,1.54.34.34-2.1,1.24-2.13.66,1.71-.85,4.55.7,6.3.8,1.41-1.39.76-2.11.9-.07-.06-.15-.12-.22-.17"/>
  <path class="cls-1" d="m88.55,101.79c.39-1.35,1.11-2.58,1.65-3.87.29-.47.32-1.4.82-1.35.48.06,1.99,1.26,1.57,1.84-1.28,1.19-2.56,2.37-3.83,3.55-.07-.06-.14-.11-.2-.17"/>
  <path class="cls-2" d="m119.72,88.24c.15.1.17.22.03.34-.13-.1-.12-.22-.03-.34"/>
  <path d="m122.11,92.52c-.47-.25-.52,1.17-.84.21.59-.23.12-.59.04-.8-.28-.73-.49-1.46-.26-2.27.35.96.71,1.91,1.06,2.86"/>
  <path d="m121.25,92.72s-.09-.09-.14-.14c.05.05.09.09.14.14"/>
  <polygon points="228.49 109.75 267.42 27.18 218.67 27.18 228.67 42.6 186.77 131.14 257.95 131.14 268.12 109.75 228.49 109.75"/>
  <path d="m342.45,66.62l.02-.04h-31.53l-30.55,64.56h31.55l20.34-42.95h50.32l10.17-21.57h-50.32Zm-58.5-39.44l-10.59,21.56h128.01l10.16-21.56h-127.58Z"/>
  <path d="m422.23,27.18l-15.6,32.96c-2.98,6.31-1.75,12.27,3.33,15.42,8.77,5.62,25.78,16.14,34.72,21.57l-5.79,12.62h-24.19s-76.33,0-76.33,0c-1.65,3.51-4.27,9.06-10.14,21.4h131.88l12.8-26.82,2.45-5.44c4.39-9.12,2.63-17.53-4.38-22.26-8.76-5.79-21.03-13.68-31.2-19.99l3.68-7.89h33.14c.72,0,1.41.03,2.08.09h20.46l10.24-21.65h-87.14Z"/>
  <polygon points="203.25 161.58 203.25 167.14 189.75 167.14 189.75 144.64 195.5 144.64 195.5 161.58 203.25 161.58"/>
  <path d="m220.5,151.07v16.07h-5.33v-1.61c-.9,1.28-2.48,2.06-4.47,2.06-3.31,0-5.91-2.28-5.91-6.91v-9.61h5.33v8.93c0,1.74,1.03,2.54,2.41,2.54,1.64,0,2.64-1,2.64-2.92v-8.55h5.33Z"/>
  <path d="m236.57,162.19c0,4.02-3.66,5.4-6.94,5.4s-5.91-1.09-7.2-3.82l4.66-2.35c.42,1.19,1.25,1.77,2.51,1.77.93,0,1.45-.29,1.45-.87,0-1.67-7.84-.61-7.84-6.3,0-3.63,3.18-5.4,6.46-5.4,2.89,0,5.3,1.09,6.62,3.73l-4.5,2.02c-.45-.9-1.09-1.38-1.99-1.38-.74,0-1.19.29-1.19.77,0,1.77,7.97.32,7.97,6.43"/>
  <path d="m255.3,151.07v16.07h-5.33v-1.48c-1.03,1.22-2.51,1.93-4.56,1.93-4.31,0-7.55-3.66-7.55-8.48s3.24-8.48,7.55-8.48c2.06,0,3.53.71,4.56,1.93v-1.48h5.33Zm-5.33,8.03c0-2.09-1.38-3.5-3.38-3.5s-3.37,1.41-3.37,3.5,1.38,3.5,3.37,3.5,3.38-1.41,3.38-3.5"/>
  <polygon points="268.28 167.14 263.72 160.29 263.72 167.14 258.38 167.14 258.38 144.64 263.72 144.64 263.72 157.79 267.86 151.07 274.03 151.07 268.63 159.1 274.26 167.14 268.28 167.14"/>
  <path d="m291.48,151.07v16.07h-5.33v-1.48c-1.03,1.22-2.51,1.93-4.56,1.93-4.31,0-7.55-3.66-7.55-8.48s3.24-8.48,7.55-8.48c2.06,0,3.53.71,4.56,1.93v-1.48h5.33Zm-5.33,8.03c0-2.09-1.38-3.5-3.38-3.5s-3.37,1.41-3.37,3.5,1.38,3.5,3.37,3.5,3.38-1.41,3.38-3.5"/>
  <polygon points="307.83 150.2 307.83 153.87 315.74 153.87 315.74 159.43 307.83 159.43 307.83 167.14 302.08 167.14 302.08 144.64 315.9 144.64 315.9 150.2 307.83 150.2"/>
  <path d="m318.08,146.67c0-1.67,1.41-3.05,3.09-3.05s3.08,1.38,3.08,3.05-1.41,3.08-3.08,3.08-3.09-1.41-3.09-3.08m.42,4.4h5.34v16.07h-5.34v-16.07Z"/>
  <path d="m333.54,156.18v4.66c0,1.51,1.19,1.61,3.34,1.48v4.82c-6.56.8-8.68-1.22-8.68-6.17v-4.79h-2.41v-5.11h2.41v-2.89l5.33-1.61v4.5h3.34v5.11h-3.34Z"/>
  <path d="m355.29,157.53v9.61h-5.33v-8.93c0-1.74-1.03-2.54-2.41-2.54-1.64,0-2.63,1-2.63,2.92v8.55h-5.33v-16.07h5.33v1.61c.9-1.29,2.47-2.06,4.47-2.06,3.31,0,5.91,2.28,5.91,6.91"/>
  <path d="m366.54,163.03c1.16,0,2.15-.39,2.92-1.12l3.86,2.7c-1.61,2.02-4.05,2.99-6.91,2.99-5.56,0-9-3.7-9-8.45s3.53-8.52,8.55-8.52,8.29,3.63,8.29,8.45c0,.67-.06,1.32-.22,1.99h-11.09c.64,1.54,2.06,1.96,3.6,1.96m2.51-5.66c-.48-1.67-1.74-2.25-3.02-2.25-1.54,0-2.7.77-3.15,2.25h6.17Z"/>
  <path d="m388.97,162.19c0,4.02-3.66,5.4-6.94,5.4s-5.91-1.09-7.2-3.82l4.66-2.35c.42,1.19,1.25,1.77,2.51,1.77.93,0,1.45-.29,1.45-.87,0-1.67-7.84-.61-7.84-6.3,0-3.63,3.18-5.4,6.46-5.4,2.89,0,5.3,1.09,6.62,3.73l-4.5,2.02c-.45-.9-1.09-1.38-1.99-1.38-.74,0-1.19.29-1.19.77,0,1.77,7.97.32,7.97,6.43"/>
  <path d="m403.3,162.19c0,4.02-3.66,5.4-6.94,5.4s-5.91-1.09-7.2-3.82l4.66-2.35c.42,1.19,1.25,1.77,2.51,1.77.93,0,1.45-.29,1.45-.87,0-1.67-7.84-.61-7.84-6.3,0-3.63,3.18-5.4,6.46-5.4,2.89,0,5.3,1.09,6.62,3.73l-4.5,2.02c-.45-.9-1.09-1.38-1.99-1.38-.74,0-1.19.29-1.19.77,0,1.77,7.97.32,7.97,6.43"/>
  <path d="m411.81,162.03l4.92-2.86c.8,1.93,2.18,2.99,4.44,2.99,2.02,0,2.63-.74,2.63-1.51,0-1.29-1.48-1.67-4.34-2.47-3.54-1.03-6.68-2.83-6.68-7.04s3.44-6.97,7.81-6.97c3.73,0,6.78,1.77,8.36,5.14l-4.82,2.83c-.71-1.67-1.86-2.51-3.5-2.51-1.41,0-2.09.67-2.09,1.48,0,1,.8,1.54,3.86,2.44,3.47,1.03,7.17,2.31,7.17,7.04,0,4.47-3.47,7.04-8.55,7.04s-8-2.28-9.19-5.59"/>
  <path d="m448.73,151.07v22.49h-5.33v-7.91c-1.03,1.22-2.51,1.93-4.56,1.93-4.31,0-7.55-3.66-7.55-8.48s3.24-8.48,7.55-8.48c2.06,0,3.53.71,4.56,1.93v-1.48h5.33Zm-5.33,8.03c0-2.09-1.38-3.5-3.38-3.5s-3.37,1.41-3.37,3.5,1.38,3.5,3.37,3.5,3.38-1.41,3.38-3.5"/>
  <path d="m467.33,151.07v16.07h-5.33v-1.61c-.9,1.28-2.48,2.06-4.47,2.06-3.31,0-5.91-2.28-5.91-6.91v-9.61h5.33v8.93c0,1.74,1.03,2.54,2.41,2.54,1.64,0,2.64-1,2.64-2.92v-8.55h5.33Z"/>
  <path d="m487.1,151.07v16.07h-5.33v-1.48c-1.03,1.22-2.51,1.93-4.56,1.93-4.31,0-7.55-3.66-7.55-8.48s3.24-8.48,7.55-8.48c2.06,0,3.53.71,4.56,1.93v-1.48h5.33Zm-5.33,8.03c0-2.09-1.38-3.5-3.38-3.5s-3.37,1.41-3.37,3.5,1.38,3.5,3.37,3.5,3.38-1.41,3.38-3.5"/>
  <path d="m506.82,144.64v22.49h-5.33v-1.48c-1.03,1.22-2.51,1.93-4.56,1.93-4.31,0-7.55-3.66-7.55-8.48s3.24-8.48,7.55-8.48c2.06,0,3.53.71,4.56,1.93v-7.91h5.33Zm-5.33,14.46c0-2.09-1.38-3.5-3.38-3.5s-3.37,1.41-3.37,3.5,1.38,3.5,3.37,3.5,3.38-1.41,3.38-3.5"/>
</svg>