<?xml version="1.0" encoding="UTF-8"?>
<svg id="Layer_1" data-name="Layer 1" xmlns="http://www.w3.org/2000/svg" viewBox="0 0 1024 343.15">
  <defs>
    <style>
      .cls-1 {
        fill: #c94538;
      }

      .cls-2 {
        fill: #139956;
      }
    </style>
  </defs>
  <path d="m251.74,284.47c-.03.34-.06.67-.08,1.01-2.8,1.91-5.59,3.82-8.41,5.71-.34.23-.74.87-1.21.24,4.56-7.88,6.03-11.94,3.29-21.23-4.21-15.97-9.25-32.16-7.69-48.87-.2-6.47,3.1-15.61-5.06-18.15-8.64-3.68-17.66-6.88-25.59-11.94q-6.97-4.76-14.95-4.8c1.54-2.4,7.53-11.25,10.79-9.19,13.82,5.83,27.6,12.99,37.96,23.81,1.96-4.63,2.2-10.29,4.25-15.08,2.22-6.34,6.82-11.76,8.02-18.42,2.04.06,11.33,8.67,12.31,4.52,2.81-12.03,13.2-20.69,24.17-25.42-9.91-5.6-20.23-10.42-31.72-7.06,12.52-10.16,7.45-20.32,6.38-33.89,10.56-.95,24.24-3.64,32.99,3.7.5.66.72.07.95-.18,6.63-9.76-3.12-20.61-7.31-29.35-.22-.4-.84-1.09.27-1.28,11.03,1.88,8.97,13.52,11.32,21.81,1.36,4.35,3.95,8.13,4.52,12.8,6.91-11,9.19-24.59,4.14-36.66-2.82-5.47,4.25-3.6,5.07,4.15,3.75-4.03.46-12.59,4.82-15,2.36,1.25-1.6,7.98.75,9.32.8.18.86-1.28,1.12-2.04,1.6-3.44,1.15-6.82,3.68-7.17,1.77,1.85-.93,5.31-.62,7.7,1.22-1.38.64-2.85,2.17-4.1.73-.5,1.37,1.28,1.37,1.28.17.15-.15,1.52-.23,1.95-.25.11-.25.27-.1.47-.34,2.13-2.06,4.38-1.67,6.39.45-.33.71-.64.71-1.1.56-1.31,2.86-3.74,3.02-.9-1.46,3.89-3.94,7.46-5.12,11.54-2.58,4.79-6.23,8.75-6.34,14.5-4.21,17.17-8.78,45.8-23.84,14.9-15.77,46.94-.25,18.27,43.04,50.65,7.88,5.75,2.85,16.56,2.39,24.56-2.25,16.4-6.64,32.63-7.49,49.16.06,1.06-.06,2.21,1.53,2.36,3.54,5.32,7.04,11.03,12.5,14.89,3.77,3.22,12.36,2.67,11.96,9.17-4.44,5.33-12.49,3.23-18.31,1.92-8.97-3.66-21.13-1.87-28.25-8.81-1.72-2.43,2.14-3.49,1.8-6.03.37-2.88.33-10.28,4.37-10.11,2.9-1.11,3.12-9.92,3.39-13.06,1.67-15.5-3.11-31.78,2.55-46.63,2.96-6.34-.07-6.48-5.74-6.54-65.88-1.94-27.5-15.14-59.21,25.61-6.37,5.77-9.1,14.36-15.64,19.8-.77.57-.73,1.23-.71,1.99,2.41,18.78,3.58,37.96,7.55,56.51-.09.25,0,.44.15.62"/>
  <path d="m271.6,69.77c.39-1.27.96-2.51.86-4.05-7.26,2.2-14.13,1.92-21.57.36,5.34-.55,9.42-2.53,12.89-6.77-9.45,2.72-18.4,1.87-27.38-.34,6.89-.14,13.35-1.45,18.92-6.48-4.44-.49-8.61-.89-12.93-2.44,11.81-1.26,17.68-13.26,28.69-16.46,11.51-4.24,27.1.91,28.42,14.46.53,3.39-1.41,6.55,1.46,9.34,2.04,2.52-3.24,2.39-1.03,4.56.9.9.03,1.64-.65,2.12-1.65.85.85,2.77-1.25,3.54-2.63,1.32-3.41,6.08-7.13,3.84-1.5-.94-3.07-2.44-3.66.18-.34,1.94-1.98,4.61.32,5.87,1.64,3.18,11.34,17.18,2.88,15.94-9.69-4.94-8.23-19.87-18.84-23.67"/>
  <path d="m251.26,158.11c-.06-.38-.13-.76-.19-1.13.27-.24.24-.46-.06-.66.81-12.06-7.54-19.91-14.06-28.97-3.04-5.87-12.33-16.81-9.07-23.13,4.45-8.86,13.06-14.33,21.44-19.01,7.2-4.26,12.29-11.45,20.56-13.99,15,9.25,7.58,25.84-10.03,22.72-4.84,1.71-6.99,7.76-11.94,9.7-3.76,2.39-9.78,3.38-6.52,8.86,4.24,9.62,8.86,20.17,16.13,27.62.71,2.88,4.24,4.59,5.63,7.3,1.16,2.51,4.88,2.94,5.68,5.21-2.2,2.16-4.83-1.2-7.04-1.94-.48,1.36,7.18,16.9,2.36,12.07-2.06-2-2.28-6.51-4.93-7.43-.55,2.62,4.47,8.99,2.86,11.59-2.87-.52-3.15-7.86-5.4-9-.77,2.18,1.55,5.18,1.97,7.57.17.59.36,1.18-.31,1.59-3.36.04-3.31-5.7-4.77-8.04-.43,1.57-.04,2.95.5,4.35.15.4,1.06,1.1-.07,1.54-1.71-1.85-1.37-4.73-2.72-6.82"/>
  <path d="m151.77,196.56c3.56-.39,7.06-1.56,10.7-1.06,4.21.58,9.34,7.95,6.54,12.71-5.93,10.13-12.2,20.03-22,27.04-7.52,5.45-13.09,16.06-23.91,12.57-20.93-5.5-43.76-2.88-61.59,9.84-3.54,4.07-8.77-7.3-7.46-10,4.66,15.66,30.05-25.41,55.01-12.24,5,1.42,9.63,6.52,15.04,4.9,6.64-2.27,15.05-3.3,18.3-10.44,4.03-11.51,31.03-24.12,9.34-32.93,0-.13.01-.27.01-.4"/>
  <path class="cls-2" d="m187.37,92.3c-1.59-21.57,5.4,3.36,10.28,8.62,4.01,9.19-1.65,24.01-1.61,34.41-4.98,39.35,1.97,33.35-31.28,13.99,23.34,3.33,25.67-17.19,30.28-34.75.91-3.23.47-5.49-1.97-7.92-3.59-3.59-5.84-8.12-7.46-12.97-2.72-8.29-8.65-15.81-9.7-24.3-5.06,7.55-14.6,15-12.49,25.35,3.65,17.66,4.96,37.31-2.58,54.15-2.57-22.51-6.85-46.64,3.55-67.83,3.16-5.38,8.6-8.98,10.98-14.93.85-1.86,3.21-4.38,5.18-2.31.15.16.27.43.44.45,2.55.3,1.14,1.35.55,2.44-3.25,7.81,3.07,18.19,5.84,25.59"/>
  <path class="cls-1" d="m259.85,93.95c17.63,3.11,25.01-13.5,10.03-22.72.68-.37,1.26-.85,1.71-1.46,10.61,3.81,9.16,18.73,18.84,23.68,8.46,1.27-1.26-12.82-2.88-15.95,1.2.32,2.44.52,3.56,1.09-1.11.2-.5.89-.28,1.29,4.19,8.73,13.95,19.59,7.31,29.35-.23.25-.45.85-.95.19-8.74-7.34-22.42-4.65-32.98-3.7-1.72-3.76-2.81-7.88-4.35-11.76"/>
  <path d="m143.05,140c-5.47.29-5.65,5.24-7.73,8.49,4.91-18.45,1.86-15.55-6.45-31.96-3.34-6.5-4.63-13.5-4.56-20.76.23-8.77,14.83-10.62,21.39-14.04,4.87-2.51,11.17.73,15.27-2.75,4.17-4.26,2.07,3.84-.14,4.98-26.91,27.15-41.25-7.85-25.08,38.63,2.89,5.56,1.59,13.82,7.3,17.41"/>
  <path class="cls-2" d="m251.26,158.11c1.35,2.08,1,4.96,2.72,6.82.6,1.83.71-.88,1.6-.4.39,1.08,1.29,3.16,2.74,2.55,1.72-1.91-2.97-7.13-1.65-9.16,1.82,1.34,2.2,4.96,3.52,7.06,1.99,4.12,2.86.94,1.61-1.7-.59-2.6-2.77-5.53-2.59-7.95,2.65.92,2.88,5.43,4.93,7.43,4.82,4.79-2.82-10.63-2.36-12.07,2.21.74,4.85,4.1,7.04,1.95-.8-2.27-4.52-2.7-5.68-5.21-1.39-2.7-4.92-4.42-5.63-7.3,10.46-4.77,22.37,1.22,32.03,6.52-10.96,4.73-21.36,13.4-24.18,25.42-.84,4.19-10.35-4.49-12.31-4.52-1.22-3.02-2.29-6.07-1.8-9.44"/>
  <path class="cls-1" d="m192.53,168.59c-2.99,8.41-2.27,19.37-8.59,26.01-2.69.99-11.57,11.57-12.99,7.79-5.14-13.71-11.03-6.76-21.65-7.97-1.67-.03-9.03-3.6-6.61-5.05,27.45-8.36,28.96,12.64,49.5-20.95l.34.17Z"/>
  <path d="m276.42,309.64c-8.16,2.11-15.91-2.79-24.18-1.34-4.09-.57-9.2,2.13-12.26-1.57,10.48-1.24,20.96-2.48,31.44-3.72-4.54-4.16-13.47-2.26-14.77-9.58-.2-1.01-.48-1.04-1.19-.42-2.95,2.69-7.4,4.45-11.15,2.18,3.51-.83,7.24-1.18,9.3-5.3-2.7.71-5.1,1.35-7.51,1.98-.08-.13-.17-.25-.26-.39,13.01-16.01,14.9,8.58,34.6,7.9,15.64.53,6.49,6.65-2.09,9.7-.25-.06-.48-.01-.64.22-.26-.05-.48.02-.67.22-.24-.08-.45-.06-.63.13"/>
  <path d="m48.65,246.63c.37-1.6,3.35-4.6.55-5.17-1.48-.37-2.39.46-3.03,1.62-3.44,7.91-3.14,17.25-11.6,22.09-5.89,2.57-5.24,21.05,2.84,12.28-4.53,23.83-16.38-4.01-7.3-14.9,3.86-7.48,8.71-14.37,12.57-21.85,2.12-5.49,7.85-1.98,12.19-1.57,8.09,2.77-2.93,6.06-5.92,7.8-.1-.1-.2-.2-.29-.31"/>
  <path d="m178.14,59.79c-8.77-10.52-3.91-32.63,11.72-31.83,7.37,2.53,17.57,2.97,20.23,11.71.35,3.87-2.84.13-4-.91-1.43-1.25-2.93-2.06-5.01-1.66-6.46-.45-8.37-4.5-16.28-2.16-11.52,1.72-4.07,17.03-6.66,24.86"/>
  <path d="m183.33,62.7c8.48-1.59,16.72-1.44,21.28,6.74.4.66,1.22.3,1.01-.45-.11-1.35-.19-2.7-.34-4.05-.52-1.03,2.9-6.03,2.82-3.65-2.22,9.46-3.22,7.24-.78,16.95,1.65,7.06,9.94,12.2,11.46,18.7-2.51.31-8.11-7.39-10.81-9.18-1.83-1.87-4.16-3.19-3.87-6.28-.33-6.57-8.81-8.29-11.49-13.9-2.04-3.81-6.38-2.23-9.27-4.88"/>
  <path class="cls-1" d="m148.1,180.2c-.08-16.59,8.83-40.9,26.57-21.62-18.11-.63-18.1,9.35-26.57,21.62"/>
  <path d="m201.85,107.79c6.8,6.59,8.32-.71,13.9.71,4.94,1.42,5.88-6.98,8.04-10.05,2.28-6.66-5.62-11.3-9.5-15.77,5.46-.84,8.6,6.22,12.5,9.21,1.58,1.75,1.85,3.16.54,5.14-4.12,6.01-5.21,14.8-13.35,16.9-4.57,1.36-10-1.26-12.13-6.14"/>
  <path d="m138.25,155.59c.95-.73,4.57-.51,3.25-2.16-3.67-4.87,7.16-2.25,7.11-11.52,2.06,2.32,1.95,5.89-.22,7.81-2.83,3.05-5,10.13-10.14,5.87"/>
  <path d="m206.53,58.98c5.1-.95-2.47-8.67.76-9.38,2.95.66.66-4.02,2.37-4.09,1.27,3.28-1.62,8.72,1.34,12.07,1.53,2.69-2.67,1.45-4.05,1.72-.14-.11-.28-.22-.42-.33"/>
  <path class="cls-1" d="m191.31,182.29c.74-2.59,2.13-4.93,3.16-7.41.55-.9.61-2.67,1.57-2.59.91.12,3.82,2.41,3.01,3.52-2.44,2.27-4.9,4.54-7.34,6.8-.13-.11-.26-.22-.39-.32"/>
  <path class="cls-2" d="m251.02,156.32c.29.2.32.41.05.66-.24-.2-.23-.42-.05-.66"/>
  <path d="m255.58,164.52c-.9-.48-1,2.24-1.6.4,1.13-.43.22-1.13.07-1.53-.54-1.41-.93-2.79-.5-4.35.67,1.83,1.36,3.66,2.03,5.49"/>
  <path d="m253.93,164.9c-.08-.09-.17-.17-.26-.26.09.09.18.17.26.26"/>
  <polygon points="459.32 197.53 533.86 39.39 440.52 39.39 459.65 68.93 379.41 238.49 515.73 238.49 535.21 197.53 459.32 197.53"/>
  <path d="m677.57,114.93l.04-.08h-60.39l-58.51,123.64h60.43l38.95-82.25h96.37l19.48-41.31h-96.37Zm-112.04-75.54l-20.29,41.29h245.15l19.47-41.29h-244.33Z"/>
  <path d="m830.34,39.39l-29.88,63.12c-5.71,12.08-3.35,23.51,6.37,29.54,16.79,10.75,49.37,30.9,66.49,41.31l-11.08,24.17h-46.33s-146.18-.01-146.18-.01c-3.16,6.71-8.18,17.35-19.43,40.98h252.57l24.52-51.37,4.69-10.41c8.4-17.47,5.04-33.57-8.39-42.64-16.77-11.09-40.28-26.2-59.76-38.28l7.04-15.11h63.47c1.37,0,2.7.06,3.98.17h39.19l19.62-41.46h-166.88Z"/>
  <polygon points="410.97 296.78 410.97 307.43 385.12 307.43 385.12 264.35 396.14 264.35 396.14 296.78 410.97 296.78"/>
  <path d="m444.01,276.66v30.77h-10.22v-3.08c-1.72,2.46-4.74,3.94-8.56,3.94-6.34,0-11.32-4.37-11.32-13.23v-18.4h10.22v17.11c0,3.32,1.97,4.86,4.61,4.86,3.14,0,5.05-1.91,5.05-5.6v-16.37h10.22Z"/>
  <path d="m474.78,297.95c0,7.69-7.02,10.34-13.29,10.34s-11.32-2.09-13.79-7.32l8.92-4.49c.8,2.28,2.4,3.38,4.8,3.38,1.78,0,2.77-.55,2.77-1.66,0-3.2-15.01-1.17-15.01-12.06,0-6.95,6.09-10.34,12.37-10.34,5.54,0,10.16,2.09,12.68,7.14l-8.62,3.88c-.86-1.72-2.09-2.65-3.81-2.65-1.42,0-2.28.55-2.28,1.48,0,3.38,15.26.61,15.26,12.31"/>
  <path d="m510.66,276.66v30.77h-10.22v-2.83c-1.97,2.34-4.8,3.69-8.74,3.69-8.25,0-14.46-7.02-14.46-16.25s6.21-16.25,14.46-16.25c3.94,0,6.77,1.35,8.74,3.69v-2.83h10.22Zm-10.22,15.38c0-4-2.65-6.71-6.46-6.71s-6.46,2.71-6.46,6.71,2.65,6.71,6.46,6.71,6.46-2.71,6.46-6.71"/>
  <polygon points="535.52 307.43 526.78 294.32 526.78 307.43 516.56 307.43 516.56 264.35 526.78 264.35 526.78 289.52 534.72 276.66 546.53 276.66 536.19 292.04 546.96 307.43 535.52 307.43"/>
  <path d="m579.95,276.66v30.77h-10.22v-2.83c-1.97,2.34-4.8,3.69-8.74,3.69-8.25,0-14.46-7.02-14.46-16.25s6.21-16.25,14.46-16.25c3.94,0,6.77,1.35,8.74,3.69v-2.83h10.22Zm-10.22,15.38c0-4-2.65-6.71-6.46-6.71s-6.46,2.71-6.46,6.71,2.65,6.71,6.46,6.71,6.46-2.71,6.46-6.71"/>
  <polygon points="611.27 275 611.27 282.01 626.4 282.01 626.4 292.66 611.27 292.66 611.27 307.43 600.25 307.43 600.25 264.35 626.71 264.35 626.71 275 611.27 275"/>
  <path d="m630.89,268.23c0-3.2,2.71-5.85,5.91-5.85s5.91,2.65,5.91,5.85-2.71,5.91-5.91,5.91-5.91-2.71-5.91-5.91m.8,8.43h10.22v30.77h-10.22v-30.77Z"/>
  <path d="m660.49,286.44v8.92c0,2.89,2.28,3.08,6.4,2.83v9.23c-12.56,1.54-16.62-2.34-16.62-11.82v-9.17h-4.62v-9.79h4.62v-5.54l10.22-3.08v8.62h6.4v9.79h-6.4Z"/>
  <path d="m702.15,289.03v18.4h-10.22v-17.11c0-3.32-1.97-4.86-4.62-4.86-3.14,0-5.05,1.91-5.05,5.6v16.37h-10.22v-30.77h10.22v3.08c1.72-2.46,4.74-3.94,8.55-3.94,6.34,0,11.32,4.37,11.32,13.23"/>
  <path d="m723.69,299.55c2.22,0,4.12-.74,5.6-2.15l7.38,5.17c-3.08,3.88-7.75,5.72-13.23,5.72-10.65,0-17.23-7.08-17.23-16.19s6.77-16.31,16.37-16.31,15.88,6.95,15.88,16.19c0,1.29-.12,2.52-.43,3.81h-21.23c1.23,2.96,3.94,3.75,6.89,3.75m4.8-10.83c-.92-3.2-3.32-4.31-5.79-4.31-2.95,0-5.17,1.48-6.03,4.31h11.82Z"/>
  <path d="m766.64,297.95c0,7.69-7.02,10.34-13.29,10.34s-11.32-2.09-13.79-7.32l8.92-4.49c.8,2.28,2.4,3.38,4.8,3.38,1.78,0,2.77-.55,2.77-1.66,0-3.2-15.01-1.17-15.01-12.06,0-6.95,6.09-10.34,12.37-10.34,5.54,0,10.16,2.09,12.68,7.14l-8.62,3.88c-.86-1.72-2.09-2.65-3.81-2.65-1.42,0-2.28.55-2.28,1.48,0,3.38,15.26.61,15.26,12.31"/>
  <path d="m794.09,297.95c0,7.69-7.02,10.34-13.29,10.34s-11.32-2.09-13.79-7.32l8.92-4.49c.8,2.28,2.4,3.38,4.8,3.38,1.78,0,2.77-.55,2.77-1.66,0-3.2-15.01-1.17-15.01-12.06,0-6.95,6.09-10.34,12.37-10.34,5.54,0,10.16,2.09,12.68,7.14l-8.62,3.88c-.86-1.72-2.09-2.65-3.81-2.65-1.42,0-2.28.55-2.28,1.48,0,3.38,15.26.61,15.26,12.31"/>
  <path d="m810.39,297.64l9.42-5.48c1.54,3.69,4.18,5.72,8.49,5.72,3.88,0,5.05-1.42,5.05-2.89,0-2.46-2.83-3.2-8.31-4.74-6.77-1.97-12.8-5.42-12.8-13.48s6.59-13.35,14.96-13.35c7.14,0,12.98,3.39,16,9.85l-9.23,5.42c-1.35-3.2-3.57-4.8-6.71-4.8-2.71,0-4,1.29-4,2.83,0,1.91,1.54,2.96,7.38,4.68,6.65,1.97,13.73,4.43,13.73,13.48,0,8.55-6.65,13.48-16.37,13.48s-15.32-4.37-17.6-10.71"/>
  <path d="m881.1,276.66v43.08h-10.22v-15.14c-1.97,2.34-4.8,3.69-8.74,3.69-8.25,0-14.46-7.02-14.46-16.25s6.21-16.25,14.46-16.25c3.94,0,6.77,1.35,8.74,3.69v-2.83h10.22Zm-10.22,15.38c0-4-2.65-6.71-6.46-6.71s-6.46,2.71-6.46,6.71,2.65,6.71,6.46,6.71,6.46-2.71,6.46-6.71"/>
  <path d="m916.73,276.66v30.77h-10.22v-3.08c-1.72,2.46-4.74,3.94-8.56,3.94-6.34,0-11.32-4.37-11.32-13.23v-18.4h10.22v17.11c0,3.32,1.97,4.86,4.61,4.86,3.14,0,5.05-1.91,5.05-5.6v-16.37h10.22Z"/>
  <path d="m954.57,276.66v30.77h-10.22v-2.83c-1.97,2.34-4.8,3.69-8.74,3.69-8.25,0-14.46-7.02-14.46-16.25s6.21-16.25,14.46-16.25c3.94,0,6.77,1.35,8.74,3.69v-2.83h10.22Zm-10.22,15.38c0-4-2.65-6.71-6.46-6.71s-6.46,2.71-6.46,6.71,2.65,6.71,6.46,6.71,6.46-2.71,6.46-6.71"/>
  <path d="m992.36,264.35v43.08h-10.22v-2.83c-1.97,2.34-4.8,3.69-8.74,3.69-8.25,0-14.46-7.02-14.46-16.25s6.21-16.25,14.46-16.25c3.94,0,6.77,1.35,8.74,3.69v-15.14h10.22Zm-10.22,27.69c0-4-2.65-6.71-6.46-6.71s-6.46,2.71-6.46,6.71,2.65,6.71,6.46,6.71,6.46-2.71,6.46-6.71"/>
</svg>