<?xml version="1.0" encoding="UTF-8"?>
<svg id="Layer_1" data-name="Layer 1" xmlns="http://www.w3.org/2000/svg" viewBox="0 0 1920 1920">
  <defs>
    <style>
      .cls-1 {
        fill: #fff;
      }

      .cls-2 {
        fill: #179956;
      }

      .cls-3 {
        fill: #ca4538;
      }
    </style>
  </defs>
  <path class="cls-1" d="m595.57,1114.9c-.05.47-.08.95-.12,1.42-3.92,2.67-7.83,5.35-11.77,8-.48.32-1.03,1.21-1.69.34,6.38-11.03,8.45-16.72,4.61-29.73-5.9-22.36-12.96-45.03-10.77-68.43-.28-9.05,4.34-21.86-7.08-25.41-12.1-5.16-24.73-9.63-35.83-16.73q-9.76-6.67-20.94-6.72c2.16-3.36,10.54-15.75,15.11-12.88,19.35,8.16,38.65,18.19,53.16,33.34,2.74-6.49,3.08-14.41,5.95-21.12,3.11-8.88,9.54-16.47,11.23-25.8,2.85.09,15.87,12.15,17.23,6.33,3.94-16.85,18.49-28.98,33.84-35.59-13.88-7.84-28.33-14.59-44.41-9.88,17.54-14.22,10.43-28.45,8.93-47.45,14.79-1.33,33.95-5.1,46.19,5.18.7.92,1.01.1,1.34-.26,9.28-13.67-4.37-28.86-10.24-41.11-.31-.56-1.18-1.52.38-1.8,15.44,2.64,12.56,18.94,15.85,30.54,1.9,6.1,5.53,11.38,6.33,17.92,9.68-15.4,12.87-34.43,5.8-51.34-3.95-7.66,5.95-5.04,7.09,5.81,5.26-5.65.65-17.62,6.75-21,3.3,1.76-2.24,11.18,1.05,13.05,1.11.26,1.2-1.79,1.57-2.86,2.24-4.82,1.6-9.54,5.16-10.04,2.48,2.58-1.3,7.44-.87,10.78,1.71-1.93.89-3.99,3.04-5.75,1.03-.7,1.92,1.79,1.92,1.79.23.21-.21,2.13-.32,2.73-.35.16-.36.38-.13.66-.48,2.98-2.89,6.13-2.33,8.95.63-.46,1-.89.99-1.54.78-1.84,4.01-5.23,4.22-1.27-2.04,5.44-5.52,10.44-7.17,16.16-3.62,6.71-8.72,12.25-8.88,20.3-5.89,24.04-12.3,64.13-33.38,20.86-22.08,65.73-.36,25.58,60.27,70.92,11.03,8.05,3.99,23.19,3.34,34.39-3.15,22.96-9.29,45.68-10.49,68.84.08,1.48-.08,3.09,2.14,3.31,4.95,7.45,9.86,15.45,17.51,20.85,5.28,4.51,17.3,3.74,16.74,12.84-6.21,7.47-17.49,4.53-25.64,2.68-12.57-5.13-29.59-2.62-39.56-12.33-2.41-3.4,3-4.89,2.52-8.44.52-4.04.46-14.4,6.11-14.15,4.05-1.56,4.36-13.89,4.74-18.29,2.34-21.7-4.36-44.5,3.56-65.29,4.14-8.88-.1-9.08-8.04-9.15-92.25-2.72-38.5-21.2-82.92,35.86-8.92,8.08-12.74,20.1-21.9,27.72-1.08.8-1.02,1.72-1,2.79,3.37,26.3,5.02,53.16,10.58,79.13-.13.35,0,.62.21.87"/>
  <path class="cls-1" d="m623.36,814.27c.54-1.78,1.34-3.52,1.2-5.67-10.17,3.07-19.78,2.68-30.21.51,7.48-.77,13.19-3.55,18.04-9.48-13.23,3.81-25.76,2.62-38.34-.48,9.65-.2,18.69-2.03,26.5-9.08-6.22-.69-12.06-1.25-18.11-3.42,16.54-1.77,24.76-18.57,40.18-23.04,16.12-5.94,37.95,1.27,39.79,20.24.75,4.75-1.97,9.17,2.05,13.08,2.85,3.53-4.54,3.35-1.44,6.39,1.26,1.26.04,2.3-.92,2.97-2.31,1.18,1.18,3.88-1.75,4.96-3.68,1.85-4.78,8.51-9.98,5.38-2.1-1.31-4.29-3.41-5.12.25-.48,2.72-2.78,6.46.45,8.21,2.29,4.45,15.88,24.06,4.04,22.32-13.57-6.92-11.53-27.83-26.38-33.15"/>
  <path class="cls-1" d="m594.89,937.97c-.09-.53-.18-1.06-.27-1.59.37-.34.33-.64-.08-.92,1.14-16.89-10.56-27.87-19.69-40.56-4.25-8.22-17.26-23.54-12.71-32.39,6.24-12.4,18.28-20.07,30.03-26.62,10.09-5.96,17.21-16.04,28.79-19.59,21,12.96,10.61,36.18-14.04,31.82-6.77,2.39-9.78,10.87-16.73,13.58-5.27,3.34-13.7,4.73-9.13,12.4,5.93,13.47,12.4,28.25,22.58,38.68,1,4.03,5.93,6.43,7.89,10.22,1.62,3.52,6.83,4.12,7.96,7.29-3.07,3.03-6.76-1.68-9.86-2.72-.67,1.91,10.06,23.67,3.31,16.9-2.88-2.8-3.2-9.12-6.91-10.41-.77,3.67,6.26,12.58,4,16.23-4.02-.73-4.41-11-7.56-12.61-1.08,3.05,2.16,7.25,2.75,10.59.23.83.5,1.66-.44,2.23-4.71.06-4.63-7.98-6.68-11.25-.61,2.19-.05,4.13.7,6.09.21.56,1.49,1.54-.1,2.16-2.4-2.59-1.91-6.63-3.8-9.54"/>
  <path class="cls-1" d="m455.58,991.81c4.99-.54,9.88-2.18,14.99-1.48,5.89.81,13.07,11.13,9.16,17.79-8.3,14.19-17.08,28.04-30.8,37.87-10.52,7.63-18.33,22.48-33.48,17.61-29.31-7.71-61.28-4.04-86.24,13.78-4.95,5.69-12.28-10.22-10.44-14.01,6.53,21.93,42.08-35.58,77.02-17.14,7,1.99,13.48,9.13,21.07,6.86,9.29-3.18,21.07-4.62,25.63-14.61,5.65-16.11,43.45-33.77,13.08-46.11,0-.19.02-.37.02-.56"/>
  <path class="cls-2" d="m505.42,845.82c-2.23-30.21,7.56,4.71,14.39,12.07,5.61,12.87-2.32,33.62-2.25,48.18-6.98,55.1,2.75,46.69-43.81,19.59,32.68,4.67,35.95-24.07,42.41-48.66,1.27-4.52.66-7.68-2.75-11.08-5.03-5.03-8.17-11.37-10.44-18.16-3.8-11.6-12.11-22.14-13.58-34.03-7.09,10.57-20.44,21.01-17.49,35.5,5.11,24.74,6.94,52.24-3.62,75.83-3.6-31.53-9.59-65.31,4.97-94.99,4.43-7.54,12.05-12.57,15.37-20.91,1.18-2.61,4.49-6.14,7.25-3.23.2.22.38.61.61.63,3.57.43,1.59,1.9.77,3.42-4.55,10.93,4.3,25.48,8.17,35.84"/>
  <path class="cls-3" d="m606.92,848.13c24.68,4.36,35.02-18.91,14.04-31.82.95-.52,1.77-1.18,2.4-2.05,14.85,5.34,12.82,26.23,26.38,33.16,11.85,1.78-1.76-17.95-4.04-22.33,1.68.45,3.41.72,4.98,1.52-1.56.29-.7,1.25-.39,1.81,5.87,12.22,19.53,27.44,10.24,41.1-.32.36-.63,1.18-1.34.27-12.24-10.27-31.39-6.51-46.18-5.19-2.41-5.27-3.93-11.03-6.09-16.47"/>
  <path class="cls-1" d="m443.37,912.61c-7.66.41-7.91,7.34-10.83,11.89,6.88-25.83,2.6-21.78-9.03-44.75-4.68-9.1-6.48-18.9-6.38-29.07.33-12.28,20.77-14.87,29.95-19.66,6.83-3.52,15.65,1.02,21.38-3.85,5.85-5.96,2.9,5.37-.2,6.97-37.68,38.02-57.77-10.99-35.12,54.1,4.05,7.79,2.23,19.34,10.23,24.38"/>
  <path class="cls-2" d="m594.89,937.97c1.89,2.91,1.41,6.95,3.8,9.54.85,2.57.99-1.23,2.25-.56.55,1.51,1.81,4.43,3.84,3.57,2.41-2.67-4.16-9.99-2.32-12.82,2.55,1.88,3.07,6.95,4.93,9.88,2.78,5.76,4,1.32,2.26-2.38-.82-3.64-3.88-7.74-3.63-11.13,3.71,1.29,4.03,7.61,6.91,10.41,6.75,6.7-3.95-14.89-3.31-16.9,3.09,1.04,6.79,5.75,9.86,2.73-1.12-3.18-6.34-3.78-7.96-7.3-1.95-3.79-6.89-6.19-7.89-10.22,14.65-6.67,31.32,1.7,44.86,9.13-15.35,6.62-29.91,18.76-33.85,35.6-1.18,5.86-14.5-6.28-17.23-6.33-1.71-4.22-3.21-8.5-2.52-13.22"/>
  <path class="cls-3" d="m512.65,952.64c-4.18,11.78-3.17,27.12-12.03,36.42-3.77,1.39-16.21,16.2-18.19,10.91-7.19-19.19-15.45-9.46-30.32-11.16-2.34-.04-12.64-5.03-9.25-7.07,38.44-11.71,40.55,17.71,69.32-29.34l.47.23Z"/>
  <path class="cls-1" d="m630.13,1150.16c-11.43,2.95-22.28-3.9-33.85-1.87-5.72-.79-12.88,2.98-17.17-2.2,14.68-1.74,29.35-3.48,44.03-5.21-6.35-5.82-18.85-3.16-20.68-13.41-.28-1.42-.67-1.46-1.67-.59-4.13,3.76-10.36,6.24-15.61,3.05,4.92-1.17,10.14-1.65,13.03-7.42-3.78,1-7.15,1.89-10.52,2.77-.11-.18-.24-.36-.36-.54,18.21-22.42,20.87,12.01,48.45,11.06,21.89.75,9.09,9.31-2.93,13.59-.36-.09-.67-.02-.89.3-.37-.07-.68.03-.94.3-.33-.12-.62-.08-.88.18"/>
  <path class="cls-1" d="m311.18,1061.93c.52-2.25,4.69-6.44.77-7.24-2.08-.53-3.34.65-4.24,2.27-4.81,11.08-4.39,24.16-16.24,30.94-8.24,3.6-7.34,29.48,3.98,17.2-6.34,33.36-22.94-5.61-10.23-20.87,5.4-10.47,12.2-20.12,17.61-30.59,2.97-7.69,10.99-2.77,17.06-2.2,11.32,3.88-4.11,8.49-8.3,10.92-.13-.14-.28-.29-.41-.43"/>
  <path class="cls-1" d="m492.5,800.3c-12.28-14.74-5.48-45.68,16.4-44.57,10.33,3.54,24.6,4.15,28.33,16.4.49,5.42-3.98.19-5.6-1.27-2.01-1.76-4.11-2.89-7.02-2.33-9.04-.63-11.72-6.31-22.79-3.03-16.13,2.42-5.7,23.84-9.32,34.8"/>
  <path class="cls-1" d="m499.76,804.38c11.88-2.23,23.41-2.02,29.8,9.44.56.92,1.7.42,1.41-.63-.15-1.89-.27-3.79-.47-5.68-.73-1.44,4.06-8.44,3.95-5.11-3.11,13.24-4.51,10.13-1.1,23.74,2.31,9.89,13.92,17.08,16.05,26.19-3.51.44-11.35-10.35-15.14-12.86-2.57-2.62-5.82-4.47-5.42-8.79-.46-9.2-12.33-11.61-16.09-19.46-2.85-5.33-8.94-3.13-12.98-6.84"/>
  <path class="cls-3" d="m450.44,968.91c-.11-23.23,12.36-57.27,37.21-30.28-25.36-.88-25.34,13.09-37.21,30.28"/>
  <path class="cls-1" d="m525.7,867.51c9.53,9.22,11.65-1,19.46,1,6.92,1.99,8.23-9.78,11.25-14.07,3.2-9.32-7.87-15.83-13.3-22.08,7.64-1.18,12.05,8.71,17.5,12.89,2.22,2.45,2.59,4.42.76,7.2-5.77,8.41-7.3,20.73-18.69,23.66-6.41,1.9-14-1.76-16.98-8.6"/>
  <path class="cls-1" d="m436.65,934.44c1.33-1.02,6.4-.71,4.54-3.02-5.14-6.82,10.03-3.15,9.95-16.14,2.88,3.24,2.74,8.25-.3,10.94-3.97,4.28-7,14.19-14.19,8.22"/>
  <path class="cls-1" d="m532.26,799.17c7.15-1.34-3.46-12.14,1.06-13.13,4.13.92.92-5.63,3.32-5.72,1.78,4.6-2.27,12.21,1.87,16.9,2.15,3.77-3.73,2.03-5.67,2.42-.2-.16-.39-.31-.59-.46"/>
  <path class="cls-3" d="m510.94,971.83c1.04-3.63,2.98-6.91,4.42-10.37.78-1.26.86-3.74,2.19-3.63,1.28.17,5.35,3.37,4.22,4.93-3.42,3.18-6.86,6.35-10.28,9.53-.19-.15-.37-.3-.54-.45"/>
  <path class="cls-2" d="m594.55,935.47c.41.28.45.58.07.92-.34-.28-.32-.59-.07-.92"/>
  <path class="cls-1" d="m600.95,946.95c-1.26-.67-1.4,3.14-2.25.56,1.58-.6.31-1.59.1-2.15-.76-1.97-1.3-3.9-.7-6.09.95,2.57,1.9,5.12,2.84,7.68"/>
  <path d="m598.63,947.48c-.12-.12-.24-.24-.37-.36.12.12.25.24.37.36"/>
  <polygon class="cls-1" points="886.23 993.17 990.61 771.73 859.9 771.73 886.7 813.09 774.34 1050.52 965.22 1050.52 992.49 993.17 886.23 993.17"/>
  <path class="cls-1" d="m1191.84,877.5l.06-.12h-84.56l-81.94,173.14h84.62l54.54-115.18h134.94l27.28-57.84h-134.94Zm-156.89-105.78l-28.41,57.82h343.29l27.26-57.82h-342.14Z"/>
  <path class="cls-1" d="m1405.77,771.72l-41.84,88.39c-8,16.92-4.7,32.92,8.92,41.36,23.52,15.06,69.13,43.27,93.11,57.85l-15.52,33.84h-64.88v-.02h-204.7c-4.43,9.4-11.45,24.29-27.2,57.38h353.67l34.33-71.93,6.57-14.58c11.76-24.46,7.06-47.01-11.75-59.7-23.49-15.52-56.4-36.69-83.68-53.61l9.86-21.16h88.88c1.92,0,3.79.08,5.58.23h54.87l27.47-58.05h-233.68Z"/>
  <polygon class="cls-1" points="818.53 1132.15 818.53 1147.06 782.33 1147.06 782.33 1086.74 797.76 1086.74 797.76 1132.15 818.53 1132.15"/>
  <path class="cls-1" d="m864.8,1103.97v43.09h-14.3v-4.31c-2.41,3.45-6.64,5.52-11.98,5.52-8.87,0-15.86-6.12-15.86-18.53v-25.77h14.31v23.96c0,4.65,2.76,6.81,6.46,6.81,4.4,0,7.07-2.67,7.07-7.84v-22.92h14.3Z"/>
  <path class="cls-1" d="m907.88,1133.79c0,10.77-9.83,14.48-18.62,14.48s-15.86-2.93-19.3-10.25l12.49-6.29c1.12,3.19,3.36,4.74,6.72,4.74,2.5,0,3.88-.77,3.88-2.33,0-4.48-21.02-1.64-21.02-16.89,0-9.74,8.53-14.48,17.32-14.48,7.76,0,14.22,2.93,17.75,10l-12.07,5.43c-1.21-2.41-2.93-3.71-5.34-3.71-1.98,0-3.19.78-3.19,2.07,0,4.74,21.37.86,21.37,17.23"/>
  <path class="cls-1" d="m958.12,1103.97v43.09h-14.3v-3.97c-2.76,3.28-6.72,5.17-12.24,5.17-11.55,0-20.25-9.82-20.25-22.75s8.7-22.75,20.25-22.75c5.52,0,9.48,1.89,12.24,5.17v-3.96h14.3Zm-14.3,21.54c0-5.6-3.71-9.39-9.05-9.39s-9.05,3.79-9.05,9.39,3.71,9.39,9.05,9.39,9.05-3.79,9.05-9.39"/>
  <polygon class="cls-1" points="992.93 1147.06 980.69 1128.71 980.69 1147.06 966.38 1147.06 966.38 1086.74 980.69 1086.74 980.69 1121.98 991.81 1103.97 1008.36 1103.97 993.88 1125.52 1008.96 1147.06 992.93 1147.06"/>
  <path class="cls-1" d="m1055.14,1103.97v43.09h-14.3v-3.97c-2.76,3.28-6.72,5.17-12.24,5.17-11.55,0-20.25-9.82-20.25-22.75s8.7-22.75,20.25-22.75c5.52,0,9.48,1.9,12.24,5.17v-3.96h14.3Zm-14.3,21.54c0-5.6-3.71-9.39-9.05-9.39s-9.05,3.79-9.05,9.39,3.71,9.39,9.05,9.39,9.05-3.79,9.05-9.39"/>
  <polygon class="cls-1" points="1099 1101.65 1099 1111.47 1120.2 1111.47 1120.2 1126.38 1099 1126.38 1099 1147.06 1083.57 1147.06 1083.57 1086.74 1120.63 1086.74 1120.63 1101.65 1099 1101.65"/>
  <path class="cls-1" d="m1126.48,1092.17c0-4.48,3.79-8.19,8.27-8.19s8.27,3.71,8.27,8.19-3.79,8.27-8.27,8.27-8.27-3.79-8.27-8.27m1.12,11.81h14.31v43.09h-14.31v-43.09Z"/>
  <path class="cls-1" d="m1167.93,1117.68v12.5c0,4.05,3.19,4.31,8.96,3.96v12.93c-17.58,2.15-23.27-3.28-23.27-16.55v-12.84h-6.46v-13.7h6.46v-7.76l14.3-4.31v12.07h8.96v13.7h-8.96Z"/>
  <path class="cls-1" d="m1226.27,1121.29v25.77h-14.3v-23.96c0-4.65-2.76-6.81-6.46-6.81-4.39,0-7.07,2.67-7.07,7.84v22.92h-14.31v-43.09h14.31v4.31c2.41-3.45,6.64-5.52,11.98-5.52,8.88,0,15.86,6.12,15.86,18.53"/>
  <path class="cls-1" d="m1256.43,1136.03c3.1,0,5.77-1.03,7.84-3.02l10.34,7.24c-4.31,5.43-10.86,8.02-18.53,8.02-14.91,0-24.13-9.91-24.13-22.67s9.48-22.84,22.92-22.84,22.23,9.74,22.23,22.66c0,1.81-.17,3.53-.6,5.34h-29.73c1.73,4.14,5.52,5.26,9.65,5.26m6.72-15.17c-1.29-4.48-4.66-6.03-8.1-6.03-4.14,0-7.24,2.07-8.44,6.03h16.55Z"/>
  <path class="cls-1" d="m1316.57,1133.79c0,10.77-9.83,14.48-18.62,14.48s-15.86-2.93-19.3-10.25l12.5-6.29c1.12,3.19,3.36,4.74,6.72,4.74,2.5,0,3.88-.77,3.88-2.33,0-4.48-21.02-1.64-21.02-16.89,0-9.74,8.53-14.48,17.32-14.48,7.76,0,14.22,2.93,17.75,10l-12.06,5.43c-1.21-2.41-2.93-3.71-5.34-3.71-1.98,0-3.19.78-3.19,2.07,0,4.74,21.37.86,21.37,17.23"/>
  <path class="cls-1" d="m1355,1133.79c0,10.77-9.83,14.48-18.62,14.48s-15.86-2.93-19.3-10.25l12.5-6.29c1.12,3.19,3.36,4.74,6.72,4.74,2.5,0,3.88-.77,3.88-2.33,0-4.48-21.02-1.64-21.02-16.89,0-9.74,8.53-14.48,17.32-14.48,7.76,0,14.22,2.93,17.75,10l-12.06,5.43c-1.21-2.41-2.93-3.71-5.34-3.71-1.98,0-3.19.78-3.19,2.07,0,4.74,21.37.86,21.37,17.23"/>
  <path class="cls-1" d="m1377.83,1133.36l13.19-7.67c2.15,5.17,5.86,8.02,11.89,8.02,5.43,0,7.07-1.98,7.07-4.05,0-3.45-3.97-4.48-11.63-6.64-9.48-2.76-17.93-7.58-17.93-18.87s9.22-18.7,20.94-18.7c10,0,18.18,4.74,22.41,13.79l-12.93,7.58c-1.9-4.48-5-6.72-9.4-6.72-3.79,0-5.6,1.81-5.6,3.96,0,2.67,2.16,4.14,10.34,6.55,9.31,2.76,19.22,6.21,19.22,18.87,0,11.98-9.31,18.87-22.92,18.87s-21.46-6.12-24.65-15"/>
  <path class="cls-1" d="m1476.84,1103.97v60.32h-14.3v-21.2c-2.76,3.28-6.72,5.17-12.24,5.17-11.55,0-20.25-9.82-20.25-22.75s8.7-22.75,20.25-22.75c5.52,0,9.48,1.9,12.24,5.17v-3.96h14.3Zm-14.3,21.54c0-5.6-3.71-9.39-9.05-9.39s-9.05,3.79-9.05,9.39,3.71,9.39,9.05,9.39,9.05-3.79,9.05-9.39"/>
  <path class="cls-1" d="m1526.74,1103.97v43.09h-14.3v-4.31c-2.41,3.45-6.64,5.52-11.98,5.52-8.87,0-15.86-6.12-15.86-18.53v-25.77h14.31v23.96c0,4.65,2.76,6.81,6.46,6.81,4.4,0,7.07-2.67,7.07-7.84v-22.92h14.3Z"/>
  <path class="cls-1" d="m1579.73,1103.97v43.09h-14.3v-3.97c-2.76,3.28-6.72,5.17-12.24,5.17-11.55,0-20.25-9.82-20.25-22.75s8.7-22.75,20.25-22.75c5.52,0,9.48,1.9,12.24,5.17v-3.96h14.3Zm-14.3,21.54c0-5.6-3.71-9.39-9.05-9.39s-9.05,3.79-9.05,9.39,3.71,9.39,9.05,9.39,9.05-3.79,9.05-9.39"/>
  <path class="cls-1" d="m1632.64,1086.74v60.32h-14.3v-3.97c-2.76,3.28-6.72,5.17-12.24,5.17-11.55,0-20.25-9.82-20.25-22.75s8.7-22.75,20.25-22.75c5.52,0,9.48,1.89,12.24,5.17v-21.2h14.3Zm-14.3,38.78c0-5.6-3.71-9.39-9.05-9.39s-9.05,3.79-9.05,9.39,3.71,9.39,9.05,9.39,9.05-3.79,9.05-9.39"/>
</svg>