<?xml version="1.0" encoding="UTF-8"?>
<svg id="Layer_1" data-name="Layer 1" xmlns="http://www.w3.org/2000/svg" viewBox="0 0 1024 343.15">
  <defs>
    <style>
      .cls-1 {
        fill: #fff;
      }

      .cls-2 {
        fill: #c94538;
      }

      .cls-3 {
        fill: #139956;
      }
    </style>
  </defs>
  <path class="cls-1" d="m242.93,293.15c-.03.35-.06.7-.09,1.05-2.89,1.97-5.78,3.95-8.69,5.91-.36.24-.76.89-1.25.25,4.71-8.14,6.24-12.35,3.4-21.95-4.36-16.51-9.57-33.25-7.95-50.53-.2-6.68,3.2-16.14-5.23-18.76-8.93-3.81-18.26-7.11-26.45-12.35q-7.2-4.92-15.46-4.96c1.59-2.48,7.78-11.63,11.16-9.51,14.29,6.03,28.53,13.43,39.25,24.62,2.03-4.79,2.28-10.64,4.4-15.59,2.3-6.55,7.05-12.16,8.29-19.05,2.1.07,11.72,8.97,12.72,4.67,2.91-12.44,13.65-21.4,24.99-26.28-10.25-5.79-20.91-10.77-32.79-7.3,12.95-10.5,7.7-21.01,6.59-35.03,10.92-.98,25.07-3.76,34.11,3.82.51.68.74.07.99-.19,6.86-10.09-3.22-21.31-7.56-30.35-.23-.41-.87-1.13.28-1.33,11.4,1.95,9.28,13.98,11.7,22.55,1.4,4.5,4.09,8.4,4.67,13.23,7.15-11.37,9.5-25.42,4.28-37.9-2.91-5.66,4.39-3.72,5.24,4.29,3.88-4.17.48-13.01,4.99-15.51,2.43,1.3-1.65,8.25.78,9.64.82.19.89-1.32,1.16-2.11,1.65-3.56,1.18-7.05,3.81-7.41,1.83,1.91-.96,5.49-.64,7.96,1.26-1.43.66-2.95,2.24-4.24.76-.52,1.41,1.32,1.41,1.32.17.16-.16,1.57-.24,2.01-.26.12-.26.28-.1.49-.36,2.2-2.13,4.53-1.72,6.61.47-.34.74-.66.73-1.14.58-1.36,2.96-3.86,3.12-.93-1.51,4.02-4.08,7.71-5.3,11.93-2.67,4.95-6.44,9.05-6.55,14.99-4.35,17.75-9.08,47.35-24.65,15.4-16.3,48.53-.26,18.89,44.5,52.36,8.14,5.94,2.95,17.13,2.47,25.39-2.32,16.95-6.86,33.73-7.74,50.82.06,1.09-.06,2.28,1.58,2.44,3.66,5.5,7.28,11.41,12.93,15.39,3.9,3.33,12.78,2.76,12.36,9.48-4.59,5.51-12.91,3.34-18.93,1.98-9.28-3.79-21.85-1.93-29.2-9.11-1.78-2.51,2.22-3.61,1.86-6.23.38-2.98.34-10.63,4.51-10.45,2.99-1.15,3.22-10.26,3.5-13.51,1.73-16.02-3.22-32.86,2.63-48.2,3.06-6.56-.07-6.7-5.93-6.76-68.11-2.01-28.43-15.65-61.22,26.47-6.59,5.97-9.41,14.84-16.17,20.47-.8.59-.75,1.27-.74,2.06,2.49,19.42,3.7,39.25,7.81,58.42-.1.26,0,.46.16.64"/>
  <path class="cls-1" d="m263.45,71.18c.4-1.32.99-2.6.89-4.18-7.51,2.27-14.61,1.98-22.3.38,5.52-.57,9.74-2.62,13.32-7-9.77,2.82-19.02,1.93-28.31-.36,7.12-.14,13.8-1.5,19.57-6.7-4.59-.51-8.9-.92-13.37-2.53,12.21-1.3,18.28-13.71,29.66-17.01,11.9-4.38,28.02.94,29.38,14.95.55,3.51-1.45,6.77,1.51,9.66,2.11,2.6-3.35,2.47-1.07,4.72.93.93.03,1.7-.68,2.19-1.7.87.87,2.86-1.29,3.66-2.72,1.37-3.53,6.28-7.37,3.97-1.55-.97-3.17-2.52-3.78.18-.36,2.01-2.05,4.77.33,6.07,1.69,3.28,11.72,17.76,2.98,16.48-10.02-5.11-8.51-20.55-19.48-24.47"/>
  <path class="cls-1" d="m242.43,162.52c-.07-.39-.13-.78-.2-1.17.28-.25.24-.47-.06-.68.84-12.47-7.8-20.58-14.54-29.95-3.14-6.07-12.74-17.38-9.38-23.92,4.6-9.16,13.5-14.82,22.17-19.66,7.45-4.4,12.7-11.84,21.26-14.46,15.51,9.57,7.84,26.71-10.37,23.49-5,1.76-7.22,8.03-12.35,10.03-3.89,2.47-10.11,3.49-6.74,9.16,4.38,9.95,9.16,20.86,16.67,28.56.74,2.97,4.38,4.75,5.82,7.55,1.2,2.6,5.05,3.04,5.87,5.38-2.27,2.24-4.99-1.24-7.28-2.01-.49,1.41,7.43,17.47,2.44,12.48-2.12-2.07-2.36-6.73-5.1-7.68-.57,2.71,4.62,9.29,2.95,11.99-2.97-.54-3.26-8.12-5.58-9.31-.8,2.25,1.6,5.36,2.03,7.82.17.61.37,1.22-.32,1.64-3.47.05-3.42-5.89-4.93-8.31-.45,1.62-.04,3.05.51,4.49.16.41,1.1,1.14-.07,1.59-1.77-1.91-1.41-4.9-2.81-7.05"/>
  <path class="cls-1" d="m139.57,202.27c3.68-.4,7.3-1.61,11.07-1.09,4.35.6,9.65,8.22,6.76,13.14-6.13,10.47-12.61,20.7-22.74,27.96-7.77,5.63-13.53,16.6-24.72,13-21.64-5.69-45.24-2.98-63.67,10.18-3.66,4.2-9.07-7.55-7.71-10.34,4.82,16.19,31.07-26.27,56.87-12.66,5.17,1.47,9.95,6.74,15.55,5.07,6.86-2.35,15.56-3.41,18.92-10.79,4.17-11.9,32.08-24.93,9.66-34.05,0-.14.01-.28.01-.41"/>
  <path class="cls-3" d="m176.37,94.48c-1.65-22.3,5.58,3.47,10.63,8.91,4.14,9.5-1.71,24.82-1.66,35.57-5.15,40.68,2.03,34.47-32.34,14.47,24.13,3.45,26.54-17.77,31.31-35.93.94-3.34.49-5.67-2.03-8.18-3.72-3.71-6.03-8.39-7.71-13.41-2.81-8.57-8.94-16.34-10.03-25.13-5.24,7.8-15.09,15.51-12.91,26.21,3.78,18.26,5.12,38.57-2.67,55.99-2.66-23.28-7.08-48.22,3.67-70.13,3.27-5.57,8.9-9.28,11.35-15.43.87-1.93,3.32-4.53,5.36-2.39.15.16.28.45.45.47,2.64.32,1.18,1.4.57,2.53-3.36,8.07,3.18,18.81,6.03,26.46"/>
  <path class="cls-2" d="m251.31,96.19c18.22,3.22,25.86-13.96,10.37-23.49.7-.38,1.3-.87,1.77-1.51,10.97,3.94,9.47,19.36,19.48,24.48,8.75,1.32-1.3-13.25-2.98-16.49,1.24.34,2.52.53,3.68,1.12-1.15.21-.52.92-.29,1.34,4.34,9.03,14.42,20.26,7.56,30.34-.24.26-.47.87-.99.2-9.04-7.59-23.18-4.81-34.1-3.83-1.78-3.89-2.9-8.14-4.5-12.16"/>
  <path class="cls-1" d="m130.56,143.8c-5.65.3-5.84,5.42-7.99,8.78,5.08-19.07,1.92-16.08-6.67-33.04-3.45-6.72-4.78-13.95-4.71-21.47.24-9.07,15.34-10.98,22.11-14.51,5.04-2.6,11.55.75,15.78-2.84,4.32-4.4,2.14,3.97-.15,5.14-27.82,28.07-42.65-8.11-25.93,39.94,2.99,5.75,1.64,14.28,7.55,18"/>
  <path class="cls-3" d="m242.43,162.52c1.39,2.15,1.04,5.13,2.81,7.05.63,1.89.73-.91,1.66-.41.41,1.12,1.34,3.27,2.84,2.64,1.78-1.97-3.07-7.38-1.71-9.47,1.88,1.39,2.27,5.13,3.64,7.3,2.05,4.26,2.95.97,1.66-1.76-.61-2.68-2.86-5.72-2.68-8.22,2.74.95,2.97,5.62,5.1,7.68,4.99,4.95-2.91-10.99-2.44-12.48,2.28.77,5.01,4.24,7.28,2.01-.83-2.35-4.68-2.79-5.87-5.39-1.44-2.8-5.09-4.57-5.82-7.55,10.82-4.93,23.13,1.26,33.12,6.74-11.34,4.89-22.09,13.85-24.99,26.28-.87,4.33-10.7-4.64-12.72-4.67-1.26-3.12-2.37-6.28-1.86-9.76"/>
  <path class="cls-2" d="m181.71,173.35c-3.09,8.7-2.34,20.03-8.88,26.89-2.78,1.03-11.97,11.96-13.43,8.05-5.31-14.17-11.41-6.99-22.38-8.24-1.73-.03-9.34-3.72-6.83-5.22,28.38-8.65,29.94,13.07,51.18-21.66l.35.17Z"/>
  <path class="cls-1" d="m268.44,319.18c-8.44,2.18-16.45-2.88-24.99-1.38-4.22-.59-9.51,2.2-12.68-1.63,10.84-1.28,21.67-2.57,32.51-3.85-4.69-4.3-13.92-2.34-15.27-9.9-.2-1.05-.49-1.08-1.23-.43-3.05,2.78-7.65,4.61-11.53,2.25,3.63-.86,7.49-1.22,9.62-5.48-2.79.74-5.28,1.39-7.76,2.05-.08-.13-.18-.26-.27-.4,13.45-16.55,15.41,8.87,35.77,8.17,16.17.55,6.71,6.87-2.16,10.03-.26-.07-.49-.01-.66.22-.27-.05-.5.02-.69.22-.24-.09-.46-.06-.65.13"/>
  <path class="cls-1" d="m32.96,254.04c.38-1.66,3.46-4.76.57-5.34-1.53-.39-2.47.48-3.13,1.68-3.55,8.18-3.24,17.84-11.99,22.84-6.09,2.66-5.42,21.76,2.94,12.7-4.68,24.63-16.93-4.14-7.55-15.41,3.99-7.73,9.01-14.86,13-22.59,2.19-5.68,8.12-2.05,12.6-1.63,8.36,2.86-3.03,6.27-6.13,8.06-.1-.11-.2-.21-.3-.32"/>
  <path class="cls-1" d="m166.83,60.87c-9.07-10.88-4.05-33.73,12.11-32.91,7.62,2.61,18.16,3.07,20.91,12.11.36,4-2.94.14-4.13-.94-1.48-1.3-3.03-2.13-5.18-1.72-6.68-.47-8.65-4.66-16.83-2.24-11.91,1.78-4.2,17.61-6.88,25.7"/>
  <path class="cls-1" d="m172.19,63.88c8.77-1.64,17.28-1.49,22,6.97.41.68,1.26.31,1.04-.47-.11-1.39-.2-2.8-.35-4.19-.54-1.07,3-6.23,2.91-3.77-2.3,9.78-3.33,7.48-.81,17.53,1.7,7.3,10.28,12.61,11.85,19.34-2.59.32-8.38-7.65-11.18-9.49-1.89-1.93-4.3-3.3-4-6.49-.34-6.8-9.11-8.57-11.88-14.37-2.1-3.93-6.6-2.31-9.58-5.05"/>
  <path class="cls-2" d="m135.78,185.36c-.08-17.15,9.13-42.28,27.47-22.36-18.72-.65-18.71,9.66-27.47,22.36"/>
  <path class="cls-1" d="m191.35,110.5c7.03,6.81,8.6-.74,14.37.74,5.11,1.47,6.08-7.22,8.31-10.39,2.36-6.88-5.81-11.68-9.82-16.3,5.64-.87,8.89,6.43,12.92,9.52,1.64,1.81,1.91,3.26.56,5.32-4.26,6.21-5.39,15.3-13.8,17.47-4.73,1.4-10.34-1.3-12.54-6.35"/>
  <path class="cls-1" d="m125.59,159.91c.98-.75,4.72-.53,3.35-2.23-3.8-5.03,7.4-2.33,7.35-11.91,2.12,2.39,2.02,6.09-.22,8.08-2.93,3.16-5.17,10.47-10.48,6.07"/>
  <path class="cls-1" d="m196.18,60.04c5.28-.99-2.55-8.97.78-9.7,3.05.68.68-4.16,2.45-4.22,1.32,3.39-1.68,9.01,1.38,12.48,1.59,2.78-2.76,1.5-4.18,1.78-.14-.12-.29-.23-.43-.34"/>
  <path class="cls-2" d="m180.44,187.51c.77-2.68,2.2-5.1,3.26-7.66.57-.93.63-2.76,1.62-2.68.94.13,3.95,2.49,3.11,3.64-2.53,2.35-5.07,4.69-7.59,7.03-.14-.11-.27-.22-.4-.34"/>
  <path class="cls-3" d="m242.18,160.67c.3.2.33.43.05.68-.25-.2-.24-.43-.05-.68"/>
  <path class="cls-1" d="m246.9,169.15c-.93-.49-1.03,2.32-1.66.41,1.17-.45.23-1.17.07-1.59-.56-1.45-.96-2.88-.51-4.5.7,1.89,1.4,3.78,2.1,5.67"/>
  <path d="m245.19,169.54c-.09-.09-.18-.18-.27-.27.09.09.18.18.27.27"/>
  <polygon class="cls-1" points="457.54 203.27 534.6 39.77 438.1 39.77 457.88 70.31 374.92 245.62 515.85 245.62 535.99 203.27 457.54 203.27"/>
  <path class="cls-1" d="m683.18,117.87l.05-.09h-62.43l-60.5,127.83h62.48l40.27-85.04h99.63l20.14-42.7h-99.63Zm-115.84-78.1l-20.97,42.69h253.46l20.13-42.69h-252.61Z"/>
  <path class="cls-1" d="m841.12,39.77l-30.89,65.26c-5.91,12.49-3.47,24.3,6.59,30.54,17.36,11.12,51.04,31.95,68.74,42.71l-11.46,24.99h-47.9s-151.13-.01-151.13-.01c-3.27,6.94-8.45,17.93-20.09,42.36h261.12l25.35-53.11,4.85-10.76c8.68-18.06,5.21-34.71-8.68-44.08-17.34-11.46-41.65-27.09-61.78-39.58l7.28-15.63h65.62c1.42,0,2.8.06,4.12.17h40.51l20.28-42.86h-172.54Z"/>
  <polygon class="cls-1" points="407.55 305.89 407.55 316.9 380.82 316.9 380.82 272.36 392.21 272.36 392.21 305.89 407.55 305.89"/>
  <path class="cls-1" d="m441.71,285.08v31.81h-10.56v-3.18c-1.78,2.54-4.9,4.07-8.85,4.07-6.55,0-11.71-4.52-11.71-13.68v-19.02h10.56v17.69c0,3.44,2.04,5.03,4.77,5.03,3.25,0,5.22-1.97,5.22-5.79v-16.92h10.56Z"/>
  <path class="cls-1" d="m473.52,307.1c0,7.95-7.25,10.69-13.74,10.69s-11.71-2.16-14.25-7.57l9.22-4.65c.83,2.35,2.48,3.5,4.97,3.5,1.84,0,2.86-.57,2.86-1.72,0-3.31-15.52-1.21-15.52-12.47,0-7.19,6.3-10.69,12.79-10.69,5.73,0,10.5,2.16,13.11,7.38l-8.91,4.01c-.89-1.78-2.16-2.74-3.94-2.74-1.46,0-2.36.57-2.36,1.53,0,3.5,15.78.64,15.78,12.72"/>
  <path class="cls-1" d="m510.61,285.08v31.81h-10.56v-2.93c-2.04,2.42-4.96,3.82-9.03,3.82-8.53,0-14.95-7.25-14.95-16.8s6.42-16.8,14.95-16.8c4.07,0,7,1.4,9.03,3.82v-2.93h10.56Zm-10.56,15.91c0-4.13-2.74-6.94-6.68-6.94s-6.68,2.8-6.68,6.94,2.74,6.94,6.68,6.94,6.68-2.8,6.68-6.94"/>
  <polygon class="cls-1" points="536.31 316.9 527.28 303.34 527.28 316.9 516.71 316.9 516.71 272.36 527.28 272.36 527.28 298.38 535.49 285.08 547.7 285.08 537.01 300.99 548.15 316.9 536.31 316.9"/>
  <path class="cls-1" d="m582.25,285.08v31.81h-10.56v-2.93c-2.04,2.42-4.96,3.82-9.03,3.82-8.53,0-14.95-7.25-14.95-16.8s6.42-16.8,14.95-16.8c4.07,0,7,1.4,9.03,3.82v-2.93h10.56Zm-10.56,15.91c0-4.13-2.74-6.94-6.68-6.94s-6.68,2.8-6.68,6.94,2.74,6.94,6.68,6.94,6.68-2.8,6.68-6.94"/>
  <polygon class="cls-1" points="614.63 283.36 614.63 290.62 630.28 290.62 630.28 301.63 614.63 301.63 614.63 316.9 603.24 316.9 603.24 272.36 630.6 272.36 630.6 283.36 614.63 283.36"/>
  <path class="cls-1" d="m634.92,276.37c0-3.31,2.8-6.04,6.11-6.04s6.11,2.74,6.11,6.04-2.8,6.11-6.11,6.11-6.11-2.8-6.11-6.11m.83,8.72h10.56v31.81h-10.56v-31.81Z"/>
  <path class="cls-1" d="m665.52,295.2v9.23c0,2.99,2.35,3.18,6.62,2.93v9.54c-12.98,1.59-17.18-2.42-17.18-12.22v-9.48h-4.77v-10.12h4.77v-5.73l10.56-3.18v8.91h6.62v10.12h-6.62Z"/>
  <path class="cls-1" d="m708.6,297.87v19.02h-10.56v-17.69c0-3.44-2.04-5.03-4.77-5.03-3.24,0-5.22,1.97-5.22,5.79v16.92h-10.56v-31.81h10.56v3.18c1.78-2.55,4.9-4.07,8.84-4.07,6.55,0,11.71,4.52,11.71,13.68"/>
  <path class="cls-1" d="m730.86,308.75c2.29,0,4.26-.76,5.79-2.23l7.64,5.34c-3.18,4.01-8.02,5.92-13.68,5.92-11.01,0-17.81-7.32-17.81-16.73s7-16.86,16.92-16.86,16.42,7.19,16.42,16.73c0,1.34-.13,2.61-.45,3.94h-21.95c1.27,3.06,4.07,3.88,7.13,3.88m4.96-11.2c-.95-3.31-3.44-4.46-5.98-4.46-3.05,0-5.34,1.53-6.24,4.46h12.22Z"/>
  <path class="cls-1" d="m775.27,307.1c0,7.95-7.25,10.69-13.74,10.69s-11.71-2.16-14.25-7.57l9.23-4.65c.83,2.35,2.48,3.5,4.96,3.5,1.84,0,2.86-.57,2.86-1.72,0-3.31-15.52-1.21-15.52-12.47,0-7.19,6.3-10.69,12.79-10.69,5.73,0,10.5,2.16,13.11,7.38l-8.91,4.01c-.89-1.78-2.16-2.74-3.94-2.74-1.46,0-2.36.57-2.36,1.53,0,3.5,15.78.64,15.78,12.72"/>
  <path class="cls-1" d="m803.64,307.1c0,7.95-7.25,10.69-13.74,10.69s-11.71-2.16-14.25-7.57l9.23-4.65c.83,2.35,2.48,3.5,4.96,3.5,1.84,0,2.86-.57,2.86-1.72,0-3.31-15.52-1.21-15.52-12.47,0-7.19,6.3-10.69,12.79-10.69,5.73,0,10.5,2.16,13.11,7.38l-8.91,4.01c-.89-1.78-2.16-2.74-3.94-2.74-1.46,0-2.36.57-2.36,1.53,0,3.5,15.78.64,15.78,12.72"/>
  <path class="cls-1" d="m820.5,306.78l9.74-5.66c1.59,3.82,4.33,5.92,8.78,5.92,4.01,0,5.22-1.46,5.22-2.99,0-2.54-2.93-3.31-8.59-4.9-7-2.04-13.24-5.6-13.24-13.93s6.81-13.81,15.46-13.81c7.38,0,13.42,3.5,16.54,10.18l-9.54,5.6c-1.4-3.31-3.69-4.96-6.94-4.96-2.8,0-4.14,1.34-4.14,2.93,0,1.97,1.59,3.06,7.64,4.84,6.87,2.04,14.19,4.58,14.19,13.93,0,8.84-6.87,13.94-16.93,13.94s-15.84-4.52-18.2-11.07"/>
  <path class="cls-1" d="m893.6,285.08v44.54h-10.56v-15.65c-2.04,2.42-4.96,3.82-9.03,3.82-8.53,0-14.95-7.25-14.95-16.8s6.42-16.8,14.95-16.8c4.07,0,7,1.4,9.03,3.82v-2.93h10.56Zm-10.56,15.91c0-4.13-2.74-6.94-6.68-6.94s-6.68,2.8-6.68,6.94,2.74,6.94,6.68,6.94,6.68-2.8,6.68-6.94"/>
  <path class="cls-1" d="m930.44,285.08v31.81h-10.56v-3.18c-1.78,2.54-4.9,4.07-8.85,4.07-6.55,0-11.71-4.52-11.71-13.68v-19.02h10.56v17.69c0,3.44,2.04,5.03,4.77,5.03,3.25,0,5.22-1.97,5.22-5.79v-16.92h10.56Z"/>
  <path class="cls-1" d="m969.56,285.08v31.81h-10.56v-2.93c-2.04,2.42-4.96,3.82-9.03,3.82-8.53,0-14.95-7.25-14.95-16.8s6.42-16.8,14.95-16.8c4.07,0,7,1.4,9.03,3.82v-2.93h10.56Zm-10.56,15.91c0-4.13-2.74-6.94-6.68-6.94s-6.68,2.8-6.68,6.94,2.74,6.94,6.68,6.94,6.68-2.8,6.68-6.94"/>
  <path class="cls-1" d="m1008.63,272.36v44.54h-10.56v-2.93c-2.04,2.42-4.96,3.82-9.03,3.82-8.53,0-14.95-7.25-14.95-16.8s6.42-16.8,14.95-16.8c4.07,0,7,1.4,9.03,3.82v-15.65h10.56Zm-10.56,28.63c0-4.13-2.74-6.94-6.68-6.94s-6.68,2.8-6.68,6.94,2.74,6.94,6.68,6.94,6.68-2.8,6.68-6.94"/>
</svg>